<?xml version="1.0" encoding="UTF-8" standalone="no"?>
<!-- Created with Inkscape (http://www.inkscape.org/) -->

<svg
   width="403.62408pt"
   height="124.45295pt"
   viewBox="0 0 142.3896 43.904236"
   version="1.1"
   id="svg1"
   xml:space="preserve"
   xmlns="http://www.w3.org/2000/svg"
   xmlns:svg="http://www.w3.org/2000/svg"><defs
     id="defs1"><style
       id="style1">
      .cls-1 {
        fill: none;
      }

      .cls-2 {
        fill: #c2c7cc;
      }

      .cls-3 {
        fill: #969a9e;
      }

      .cls-4 {
        fill: #3a3a3a;
      }

      .cls-5 {
        clip-path: url(#clippath-1);
      }

      .cls-6 {
        fill: #f6d84c;
      }

      .cls-7 {
        fill: #fff;
      }

      .cls-8 {
        fill: #f6d84c;
      }

      .cls-9 {
        fill: #5f646b;
      }

      .cls-10 {
        fill: #dae0e5;
      }

      .cls-11 {
        opacity: .8;
      }

      .cls-12 {
        opacity: .5;
      }

      .cls-13 {
        fill: #373a3a;
      }

      .cls-14 {
        clip-path: url(#clippath);
      }
    </style><style
       id="style1-3">
      .cls-1 {
        fill: none;
      }

      .cls-2 {
        fill: #c2c7cc;
      }

      .cls-3 {
        fill: #969a9e;
      }

      .cls-4 {
        fill: #3a3a3a;
      }

      .cls-5 {
        clip-path: url(#clippath-1);
      }

      .cls-6 {
        fill: #f6d84c;
      }

      .cls-7 {
        fill: #fff;
      }

      .cls-8 {
        fill: #f6d84c;
      }

      .cls-9 {
        fill: #5f646b;
      }

      .cls-10 {
        fill: #dae0e5;
      }

      .cls-11 {
        fill: #373a3a;
      }

      .cls-12 {
        clip-path: url(#clippath);
      }
    </style><style
       id="style1-0">
      .st0 {
        fill: #c2c7cc;
      }

      .st1 {
        fill: #969a9e;
      }

      .st2 {
        fill: #3a3a3a;
      }

      .st3 {
        fill: #f6d84c;
      }

      .st4 {
        fill: #fff;
      }

      .st5 {
        fill: #f6d84c;
      }

      .st6 {
        fill: #5f646b;
      }

      .st7 {
        fill: #dae0e5;
      }

      .st8 {
        fill: #373a3a;
      }

      .st9 {
        display: none;
      }
    </style><style
       id="style1-5">
      .st0 {
        fill: #c2c7cc;
      }

      .st1 {
        fill: #969a9e;
      }

      .st2 {
        fill: #3a3a3a;
      }

      .st3 {
        fill: #f6d84c;
      }

      .st4 {
        fill: #fff;
      }

      .st5 {
        fill: #f6d84c;
      }

      .st6 {
        fill: #5f646b;
      }

      .st7 {
        fill: #dae0e5;
      }

      .st8 {
        fill: #373a3a;
      }
    </style><style
       id="style1-7">
      .st0 {
        fill: #c2c7cc;
      }

      .st1 {
        fill: #969a9e;
      }

      .st2 {
        fill: #3a3a3a;
      }

      .st3 {
        fill: #f6d84c;
      }

      .st4 {
        fill: #fff;
      }

      .st5 {
        fill: #f6d84c;
      }

      .st6 {
        fill: #5f646b;
      }

      .st7 {
        fill: #dae0e5;
      }

      .st8 {
        opacity: .8;
      }

      .st9 {
        opacity: .5;
      }

      .st10 {
        fill: #373a3a;
      }
    </style><style
       id="style1-6">
      .st0 {
        fill: #c2c7cc;
      }

      .st1 {
        fill: #969a9e;
      }

      .st2 {
        fill: #3a3a3a;
      }

      .st3 {
        fill: #f6d84c;
      }

      .st4 {
        fill: #fff;
      }

      .st5 {
        fill: #5f646b;
      }

      .st6 {
        fill: #dae0e5;
      }

      .st7 {
        fill: #373a3a;
      }

      .st8 {
        fill: #373a3a;
      }
    </style><style
       id="style1-00">
      .st0 {
        fill: #aeb2f4;
      }

      .st1 {
        fill: #b70000;
      }

      .st2 {
        fill: #f6d13a;
      }

      .st3 {
        fill: #55a142;
      }

      .st4 {
        fill: #69c3fa;
      }

      .st5 {
        fill: #888abf;
      }

      .st6 {
        fill: #69c3fa;
      }

      .st7 {
        fill: #c99666;
      }

      .st8 {
        fill: #2c353b;
      }

      .st9 {
        fill: #de3078;
      }

      .st10 {
        isolation: isolate;
      }

      .st11 {
        fill: #996b3e;
      }

      .st12 {
        fill: #407e30;
      }

      .st13 {
        fill: #8ac87f;
      }

      .st14 {
        fill: #66b94b;
      }

      .st15 {
        fill: #fff;
      }

      .st16 {
        fill: #7dea5d;
      }

      .st17 {
        fill: #7f4d31;
      }

      .st18 {
        fill: #e50000;
      }

      .st19 {
        fill: #ed484f;
      }

      .st20 {
        opacity: .4;
      }

      .st21 {
        opacity: .6;
      }

      .st22 {
        opacity: .5;
      }

      .st23 {
        opacity: .2;
      }

      .st24 {
        opacity: .3;
      }

      .st25 {
        fill: #5d7280;
      }

      .st26 {
        fill: #3376bf;
      }

      .st27 {
        fill: #419ae8;
      }

      .st28 {
        fill: #3b4951;
      }

      .st29 {
        fill: #d7daff;
      }
    </style><style
       id="style1-60">.cls-1{fill:none;}.cls-2{fill:#5a5a5a;}.cls-3{fill:#e60000;}</style></defs><g
     id="layer1"
     transform="translate(883.21423,465.59613)"><path
       style="fill:#969a9e;fill-opacity:1;stroke-width:0.725918"
       d="m -874.63528,-421.89811 c -7.32778,-0.79559 -8.57895,-1.5238 -8.57895,-4.99318 0,-1.69594 0.0864,-3.03931 0.19207,-2.98525 7.31646,3.74421 14.45616,3.5481 14.45616,-0.39707 0,-1.92224 -1.40412,-3.38669 -6.56262,-6.84461 -14.2699,-9.56562 -8.54668,-20.95075 9.21244,-18.32618 5.29656,0.78277 5.09837,0.63234 5.18191,3.93306 0.0723,2.85561 0.0723,2.85561 -1.42409,2.24757 -9.81831,-3.98953 -15.93003,1.58976 -7.01188,6.40101 17.08819,9.2189 13.48985,23.0226 -5.46504,20.96465 z m 30.38769,-0.0964 c -6.62515,-0.93442 -10.05432,-4.22064 -10.05432,-9.63515 0,-6.89103 4.67714,-11.19967 13.54331,-12.47623 2.23169,-0.32132 2.23169,-0.32132 2.30099,-1.97285 0.20196,-4.81339 -4.08659,-5.92888 -11.2589,-2.92854 -2.78234,1.16391 -2.53926,1.34211 -2.45606,-1.80058 0.073,-2.75789 0.073,-2.75789 2.12171,-3.35674 8.53725,-2.49546 15.03008,-2.14484 17.96257,0.97003 2.05085,2.1784 2.00315,1.85622 2.08905,14.10895 0.0853,12.16579 -0.10685,11.19261 2.05263,10.3964 1.28343,-0.4732 1.32779,-0.39566 1.32779,2.32095 0,2.53955 0,2.53955 -2.24078,3.06359 -5.34087,1.24906 -11.87611,1.80548 -15.38799,1.31017 z m 5.84873,-11.52288 c 0,-4.26165 -0.0946,-6.91437 -0.24661,-6.91437 -7.34488,0 -10.15824,12.3635 -3.08016,13.53595 3.60514,0.59718 3.32677,1.15126 3.32677,-6.62158 z m 63.54979,11.52272 c -15.44159,-2.17743 -12.99449,-19.21248 3.16108,-22.00523 2.56088,-0.4427 2.56088,-0.4427 2.63595,-2.26996 0.20178,-4.91193 -4.413,-5.81066 -12.10819,-2.35806 -1.66758,0.74819 -1.66758,0.74819 -1.66758,-2.04722 0,-2.79541 0,-2.79541 1.85664,-3.33416 1.02114,-0.29631 2.20235,-0.64371 2.62489,-0.77203 5.45524,-1.65651 12.21548,-1.2647 15.01126,0.87003 2.73092,2.08522 3.03847,3.7245 3.041,16.20931 0.002,9.51608 0.002,9.51608 1.3464,9.15817 0.73945,-0.19685 1.43089,-0.35928 1.53652,-0.36095 0.45951,-0.007 0.21014,5.07861 -0.25609,5.22292 -4.27482,1.32308 -13.40561,2.21968 -17.18188,1.68718 z m 5.85,-11.53997 c 0,-6.93164 0,-6.93164 -0.5762,-6.75985 -7.87998,2.34926 -9.73169,12.21251 -2.52171,13.43209 3.33594,0.56429 3.09791,1.07697 3.09791,-6.67224 z m 18.43832,1.47594 c 0,-10.11555 0,-10.11555 -1.19309,-9.75649 -2.13948,0.6439 -2.13604,0.64674 -2.13604,-1.76792 0,-2.127 0,-2.127 2.41734,-3.3511 2.78582,-1.41069 6.12191,-3.46471 8.22461,-5.06387 0.80275,-0.61051 1.67531,-1.26813 1.93903,-1.46138 0.46714,-0.34229 0.47949,0.0342 0.47949,14.61063 0,16.5799 0.35273,15.42771 -4.99371,16.31196 -5.17736,0.85628 -4.73763,1.74006 -4.73763,-9.52183 z m -68.1104,8.30589 c -2.25169,-8.36215 -6.13815,-27.83457 -6.15286,-30.82781 -0.005,-0.9984 8.65196,-0.62153 8.82377,0.38414 0.0782,0.45776 0.42649,2.79136 0.77397,5.18578 2.65974,18.32752 2.74989,18.34853 6.04303,1.40848 0.7256,-3.73249 1.35967,-6.93038 1.40905,-7.10644 0.18969,-0.67627 7.75527,-0.43105 7.90067,0.25608 0.0671,0.31692 0.42254,2.70814 0.78995,5.31383 0.82377,5.8423 2.40472,14.64864 2.6826,14.94289 0.34639,0.36681 1.92418,-7.76588 3.0729,-15.83919 0.30061,-2.11273 0.59879,-4.10061 0.66262,-4.41753 0.18481,-0.91754 5.48415,-0.89871 5.48415,0.0194 0,2.10636 -3.00234,17.86036 -5.14513,26.99778 -1.125,4.79727 -8.39868,7.55098 -9.47009,3.58523 -0.58442,-2.16321 -2.77672,-11.62809 -3.08443,-13.31657 -0.35697,-1.95874 -0.83669,-2.25954 -1.22522,-0.76826 -0.13761,0.52818 -0.77811,3.03464 -1.42334,5.56991 -2.61567,10.27759 -2.04302,9.46584 -6.73398,9.54556 -4.1374,0.0704 -4.1374,0.0704 -4.40766,-0.93338 z m 67.98236,-30.8692 c -5.01828,-2.23039 -1.48623,-10.91969 4.4607,-10.97384 4.75171,-0.0433 6.17693,5.02474 2.56873,9.13426 -1.66686,1.89845 -4.95871,2.75992 -7.02943,1.83958 z"
       id="path82" /></g><style
     type="text/css"
     id="style1-4">
	.st0{fill:#000000;}
</style><style
     type="text/css"
     id="style1-2">
	.st0{fill:#000000;}
</style><style
     type="text/css"
     id="style1-57">
	.puchipuchi_een{fill:#111918;}
</style><style
     type="text/css"
     id="style1-8">
	.st0{fill:#FFFFFF;}
	.st1{fill:#FF000F;}
	.st2{clip-path:url(#SVGID_00000033360798012652455790000001710163476446538370_);}
</style></svg>
