<?xml version="1.0" encoding="UTF-8" standalone="no"?>
<!-- Created with Inkscape (http://www.inkscape.org/) -->

<svg
   width="617.30005pt"
   height="172.47447pt"
   viewBox="0 0 217.76973 60.845163"
   version="1.1"
   id="svg1"
   xml:space="preserve"
   xmlns="http://www.w3.org/2000/svg"
   xmlns:svg="http://www.w3.org/2000/svg"><defs
     id="defs1"><style
       id="style1">
      .cls-1 {
        fill: none;
      }

      .cls-2 {
        fill: #c2c7cc;
      }

      .cls-3 {
        fill: #969a9e;
      }

      .cls-4 {
        fill: #3a3a3a;
      }

      .cls-5 {
        clip-path: url(#clippath-1);
      }

      .cls-6 {
        fill: #f6d84c;
      }

      .cls-7 {
        fill: #fff;
      }

      .cls-8 {
        fill: #f6d84c;
      }

      .cls-9 {
        fill: #5f646b;
      }

      .cls-10 {
        fill: #dae0e5;
      }

      .cls-11 {
        opacity: .8;
      }

      .cls-12 {
        opacity: .5;
      }

      .cls-13 {
        fill: #373a3a;
      }

      .cls-14 {
        clip-path: url(#clippath);
      }
    </style><style
       id="style1-3">
      .cls-1 {
        fill: none;
      }

      .cls-2 {
        fill: #c2c7cc;
      }

      .cls-3 {
        fill: #969a9e;
      }

      .cls-4 {
        fill: #3a3a3a;
      }

      .cls-5 {
        clip-path: url(#clippath-1);
      }

      .cls-6 {
        fill: #f6d84c;
      }

      .cls-7 {
        fill: #fff;
      }

      .cls-8 {
        fill: #f6d84c;
      }

      .cls-9 {
        fill: #5f646b;
      }

      .cls-10 {
        fill: #dae0e5;
      }

      .cls-11 {
        fill: #373a3a;
      }

      .cls-12 {
        clip-path: url(#clippath);
      }
    </style><style
       id="style1-0">
      .st0 {
        fill: #c2c7cc;
      }

      .st1 {
        fill: #969a9e;
      }

      .st2 {
        fill: #3a3a3a;
      }

      .st3 {
        fill: #f6d84c;
      }

      .st4 {
        fill: #fff;
      }

      .st5 {
        fill: #f6d84c;
      }

      .st6 {
        fill: #5f646b;
      }

      .st7 {
        fill: #dae0e5;
      }

      .st8 {
        fill: #373a3a;
      }

      .st9 {
        display: none;
      }
    </style><style
       id="style1-5">
      .st0 {
        fill: #c2c7cc;
      }

      .st1 {
        fill: #969a9e;
      }

      .st2 {
        fill: #3a3a3a;
      }

      .st3 {
        fill: #f6d84c;
      }

      .st4 {
        fill: #fff;
      }

      .st5 {
        fill: #f6d84c;
      }

      .st6 {
        fill: #5f646b;
      }

      .st7 {
        fill: #dae0e5;
      }

      .st8 {
        fill: #373a3a;
      }
    </style><style
       id="style1-7">
      .st0 {
        fill: #c2c7cc;
      }

      .st1 {
        fill: #969a9e;
      }

      .st2 {
        fill: #3a3a3a;
      }

      .st3 {
        fill: #f6d84c;
      }

      .st4 {
        fill: #fff;
      }

      .st5 {
        fill: #f6d84c;
      }

      .st6 {
        fill: #5f646b;
      }

      .st7 {
        fill: #dae0e5;
      }

      .st8 {
        opacity: .8;
      }

      .st9 {
        opacity: .5;
      }

      .st10 {
        fill: #373a3a;
      }
    </style><style
       id="style1-6">
      .st0 {
        fill: #c2c7cc;
      }

      .st1 {
        fill: #969a9e;
      }

      .st2 {
        fill: #3a3a3a;
      }

      .st3 {
        fill: #f6d84c;
      }

      .st4 {
        fill: #fff;
      }

      .st5 {
        fill: #5f646b;
      }

      .st6 {
        fill: #dae0e5;
      }

      .st7 {
        fill: #373a3a;
      }

      .st8 {
        fill: #373a3a;
      }
    </style><style
       id="style1-00">
      .st0 {
        fill: #aeb2f4;
      }

      .st1 {
        fill: #b70000;
      }

      .st2 {
        fill: #f6d13a;
      }

      .st3 {
        fill: #55a142;
      }

      .st4 {
        fill: #69c3fa;
      }

      .st5 {
        fill: #888abf;
      }

      .st6 {
        fill: #69c3fa;
      }

      .st7 {
        fill: #c99666;
      }

      .st8 {
        fill: #2c353b;
      }

      .st9 {
        fill: #de3078;
      }

      .st10 {
        isolation: isolate;
      }

      .st11 {
        fill: #996b3e;
      }

      .st12 {
        fill: #407e30;
      }

      .st13 {
        fill: #8ac87f;
      }

      .st14 {
        fill: #66b94b;
      }

      .st15 {
        fill: #fff;
      }

      .st16 {
        fill: #7dea5d;
      }

      .st17 {
        fill: #7f4d31;
      }

      .st18 {
        fill: #e50000;
      }

      .st19 {
        fill: #ed484f;
      }

      .st20 {
        opacity: .4;
      }

      .st21 {
        opacity: .6;
      }

      .st22 {
        opacity: .5;
      }

      .st23 {
        opacity: .2;
      }

      .st24 {
        opacity: .3;
      }

      .st25 {
        fill: #5d7280;
      }

      .st26 {
        fill: #3376bf;
      }

      .st27 {
        fill: #419ae8;
      }

      .st28 {
        fill: #3b4951;
      }

      .st29 {
        fill: #d7daff;
      }
    </style><style
       id="style1-60">.cls-1{fill:none;}.cls-2{fill:#5a5a5a;}.cls-3{fill:#e60000;}</style></defs><g
     id="layer1"
     transform="translate(1279.6897,467.09338)"><rect
       x="-1279.6897"
       y="-467.09338"
       width="217.76974"
       height="60.845161"
       style="clip-rule:evenodd;fill:none;fill-rule:evenodd;stroke-width:0.127223;stroke-linejoin:round;stroke-miterlimit:2"
       id="rect1-6" /><path
       d="m -1249.0806,-466.38733 c -0.1416,0.21428 -3.4743,5.38655 -3.9699,17.1847 l 0.5683,0.0244 c 0.4129,-9.82448 2.8677,-15.06065 3.639,-16.47981 0.7701,1.41916 3.2256,6.65533 3.6385,16.47981 l 0.5701,-0.0244 c -0.4962,-11.79815 -3.8283,-16.97042 -3.9711,-17.1847 l -0.2375,-0.36027 -0.2374,0.36027"
       style="clip-rule:evenodd;fill:#969a9e;fill-opacity:1;fill-rule:nonzero;stroke-width:0.626562;stroke-linejoin:round;stroke-miterlimit:2"
       id="path1-4" /><path
       d="m -1248.8432,-455.80537 -0.9862,-0.98747 v -3.22553 h 1.9731 v 3.22553 l -0.9869,0.98747"
       style="clip-rule:evenodd;fill:#969a9e;fill-opacity:1;fill-rule:nonzero;stroke-width:0.626562;stroke-linejoin:round;stroke-miterlimit:2"
       id="path2-1" /><rect
       x="-1249.0337"
       y="-456.40823"
       width="0.38032308"
       height="5.5425615"
       style="clip-rule:evenodd;fill:#969a9e;fill-opacity:1;fill-rule:evenodd;stroke-width:0.626562;stroke-linejoin:round;stroke-miterlimit:2"
       id="rect2-31" /><path
       d="m -1259.7027,-426.79559 c -7.4918,3.54696 -12.4342,3.96237 -13.9103,4.00122 0.8439,-1.37906 3.9855,-6.18855 13.909,-12.35892 v -0.66416 c -11.6096,7.0933 -14.5444,12.95103 -14.659,13.1816 l -0.193,0.38471 0.4298,0.0263 c 0.2368,0.0131 5.4505,0.27004 14.4235,-3.94045 v -0.63032"
       style="clip-rule:evenodd;fill:#969a9e;fill-opacity:1;fill-rule:nonzero;stroke-width:0.626562;stroke-linejoin:round;stroke-miterlimit:2"
       id="path3-50" /><path
       d="m -1265.0805,-427.72038 -0.3603,1.34836 -2.7951,1.61277 -0.9862,-1.70988 2.7938,-1.6134 1.3478,0.36215"
       style="clip-rule:evenodd;fill:#969a9e;fill-opacity:1;fill-rule:nonzero;stroke-width:0.626562;stroke-linejoin:round;stroke-miterlimit:2"
       id="path4-4" /><path
       d="m -1259.7023,-431.04281 -5.9938,3.45678 0.1891,0.33148 5.8043,-3.35258 4e-4,-0.43568"
       style="clip-rule:evenodd;fill:#969a9e;fill-opacity:1;fill-rule:nonzero;stroke-width:0.626562;stroke-linejoin:round;stroke-miterlimit:2"
       id="path5-30" /><path
       d="m -1245.9835,-421.14087 c -1.1974,7.98427 -4.0777,10.53563 -4.1065,10.55881 -2.0664,2.02066 -4.3634,1.78821 -4.3866,1.78696 l -0.018,-0.003 h -0.018 c -3.3421,0.0451 -6.5432,-3.38593 -6.5745,-3.41914 l -2.5683,-2.66226 c -5.8897,-5.97426 -9.2744,-7.4517 -10.2099,-7.77062 0.06,-0.31954 0.1379,-0.92543 0.1379,-1.8872 0,-1.97116 -0.3365,-5.40785 -1.8822,-10.82322 l -1.0558,-3.5407 c -0.011,-0.0319 -0.5726,-1.80763 -0.5726,-3.83894 0,-1.20425 0.198,-2.4981 0.822,-3.57328 l 0.011,-0.0157 0.01,-0.0169 c 0.01,-0.0207 0.9348,-2.13595 3.6929,-2.93607 0.05,-0.0163 4.3189,-1.3045 13.0031,2.35588 v -0.61779 c -8.7581,-3.64158 -12.9906,-2.34209 -13.1716,-2.28257 -2.9749,0.86278 -3.9774,3.09083 -4.0445,3.2481 -0.6823,1.18482 -0.8972,2.57516 -0.8972,3.85523 0,2.08332 0.567,3.87215 0.6059,3.99057 l 1.052,3.5338 c 1.5313,5.35773 1.8533,8.76121 1.8533,10.67536 0,1.36653 -0.1641,1.97241 -0.1685,1.9887 l -0.083,0.28634 0.2907,0.0702 c 0.034,0.008 3.49,0.88783 10.2023,7.69605 l 2.5614,2.65537 c 0.1322,0.1441 3.3897,3.63718 6.9837,3.59708 0.2086,0.0238 2.6108,0.22306 4.812,-1.93043 0.1127,-0.0946 3.0751,-2.68607 4.2988,-10.98049 h -0.5764"
       style="clip-rule:evenodd;fill:#32732c;fill-rule:nonzero;stroke-width:0.626562;stroke-linejoin:round;stroke-miterlimit:2"
       id="path6-3" /><path
       d="m -1237.8934,-426.80933 c 7.4931,3.54947 12.4348,3.96426 13.9122,4.00123 -0.8446,-1.37593 -3.9862,-6.1873 -13.9109,-12.35767 v -0.66416 c 11.6095,7.09643 14.5437,12.9504 14.6596,13.1816 l 0.1924,0.38596 -0.4286,0.0263 c -0.2381,0.0138 -5.4523,0.26816 -14.4247,-3.94233 v -0.63095"
       style="clip-rule:evenodd;fill:#969a9e;fill-opacity:1;fill-rule:nonzero;stroke-width:0.626562;stroke-linejoin:round;stroke-miterlimit:2"
       id="path7-78" /><path
       d="m -1232.5156,-427.73352 0.3609,1.34836 2.7957,1.61465 0.9856,-1.71427 -2.7932,-1.61089 -1.349,0.36215"
       style="clip-rule:evenodd;fill:#969a9e;fill-opacity:1;fill-rule:nonzero;stroke-width:0.626562;stroke-linejoin:round;stroke-miterlimit:2"
       id="path8-4" /><path
       d="m -1237.8935,-431.05798 5.9942,3.46104 -0.1901,0.32796 -5.804,-3.35053 -10e-5,-0.43847"
       style="clip-rule:evenodd;fill:#969a9e;fill-opacity:1;fill-rule:nonzero;stroke-width:0.626562;stroke-linejoin:round;stroke-miterlimit:2"
       id="path9-7" /><path
       d="m -1251.6132,-421.15467 c 1.198,7.98615 4.0789,10.53563 4.1077,10.55944 2.0664,2.02191 4.3634,1.78946 4.3872,1.78507 l 0.018,-10e-4 h 0.018 c 3.3415,0.0464 6.542,-3.38594 6.5739,-3.41977 l 2.5683,-2.66164 c 5.8897,-5.97175 9.275,-7.44981 10.2111,-7.76936 -0.059,-0.32017 -0.1391,-0.9248 -0.1391,-1.88845 0,-1.96741 0.3371,-5.40723 1.8834,-10.82072 l 1.0558,-3.54258 c 0.01,-0.0319 0.5714,-1.80763 0.5714,-3.83956 0,-1.20426 -0.1967,-2.49748 -0.8227,-3.57266 l -0.01,-0.0163 -0.01,-0.0163 c -0.01,-0.0207 -0.9336,-2.13595 -3.6923,-2.93669 -0.05,-0.015 -4.3195,-1.30513 -13.0037,2.35524 v -0.61779 c 8.7569,-3.64094 12.9918,-2.3402 13.1716,-2.28068 2.9755,0.86152 3.978,3.09083 4.0457,3.24935 0.6805,1.18294 0.896,2.57266 0.896,3.8521 0,2.08394 -0.5677,3.8734 -0.6053,3.99245 l -1.0513,3.53192 c -1.5326,5.35773 -1.8547,8.76309 -1.8547,10.67535 0,1.36904 0.1661,1.97493 0.1686,1.98996 l 0.084,0.28822 -0.292,0.0683 c -0.034,0.006 -3.4893,0.88971 -10.2023,7.69542 l -2.5608,2.65474 c -0.1316,0.14411 -3.3897,3.63844 -6.983,3.60085 -0.2093,0.02 -2.6109,0.2193 -4.812,-1.93231 -0.1122,-0.0965 -3.0758,-2.68545 -4.2989,-10.98237 h 0.5746"
       style="clip-rule:evenodd;fill:#969a9e;fill-opacity:1;fill-rule:nonzero;stroke-width:0.626562;stroke-linejoin:round;stroke-miterlimit:2"
       id="path10" /><path
       d="m -1270.3411,-449.51405 c 0,0 4.6879,0.90601 10.6384,3.963 v 0.51942 c 0,0 -7.9173,-3.83017 -10.6384,-4.48242"
       style="clip-rule:evenodd;fill:#969a9e;fill-opacity:1;fill-rule:nonzero;stroke-width:0.626562;stroke-linejoin:round;stroke-miterlimit:2"
       id="path11" /><path
       d="m -1270.3411,-449.51413 10.6384,5.88153 v 0.65037 c 0,0 -9.5463,-5.60333 -10.6384,-6.5319"
       style="clip-rule:evenodd;fill:#969a9e;fill-opacity:1;fill-rule:nonzero;stroke-width:0.626562;stroke-linejoin:round;stroke-miterlimit:2"
       id="path12-0" /><path
       d="m -1270.3411,-449.51411 c 0,0 1.1428,1.88157 10.6384,8.02688 v 0.61716 c 0,0 -7.9812,-5.06512 -10.6384,-8.64404"
       style="clip-rule:evenodd;fill:#969a9e;fill-opacity:1;fill-rule:nonzero;stroke-width:0.626562;stroke-linejoin:round;stroke-miterlimit:2"
       id="path13-3" /><path
       d="m -1227.2531,-449.51405 c 0,0 -4.6861,0.90601 -10.639,3.963 v 0.51942 c 0,0 7.9172,-3.83017 10.639,-4.48242"
       style="clip-rule:evenodd;fill:#969a9e;fill-opacity:1;fill-rule:nonzero;stroke-width:0.626562;stroke-linejoin:round;stroke-miterlimit:2"
       id="path14-0" /><path
       d="m -1227.2531,-449.51413 -10.639,5.88153 v 0.65037 c 0,0 9.5475,-5.60333 10.639,-6.5319"
       style="clip-rule:evenodd;fill:#969a9e;fill-opacity:1;fill-rule:nonzero;stroke-width:0.626562;stroke-linejoin:round;stroke-miterlimit:2"
       id="path15-2" /><path
       d="m -1227.2531,-449.51411 c 0,0 -1.1422,1.88157 -10.639,8.02688 v 0.61716 c 0,0 7.983,-5.06512 10.639,-8.64404"
       style="clip-rule:evenodd;fill:#969a9e;fill-opacity:1;fill-rule:nonzero;stroke-width:0.626562;stroke-linejoin:round;stroke-miterlimit:2"
       id="path16-1" /><path
       d="m -1248.8432,-412.22489 c 0,0 -1.1547,-2.92792 -1.7293,-8.91597 h 0.4931 c 0,0 0.146,3.34333 1.2362,8.91597"
       style="clip-rule:evenodd;fill:#969a9e;fill-opacity:1;fill-rule:nonzero;stroke-width:0.626562;stroke-linejoin:round;stroke-miterlimit:2"
       id="path17-0" /><path
       d="m -1248.6195,-421.14086 -0.2237,8.91597 -0.2237,-8.91597 h 0.4474"
       style="clip-rule:evenodd;fill:#969a9e;fill-opacity:1;fill-rule:nonzero;stroke-width:0.626562;stroke-linejoin:round;stroke-miterlimit:2"
       id="path18-7" /><path
       d="m -1248.8432,-412.22489 c 0,0 0.9812,-3.11902 1.3922,-8.91597 h 0.4374 c 0,0 -0.8396,7.23052 -1.8296,8.91597"
       style="clip-rule:evenodd;fill:#969a9e;fill-opacity:1;fill-rule:nonzero;stroke-width:0.626562;stroke-linejoin:round;stroke-miterlimit:2"
       id="path19-7" /><path
       d="m -1257.0518,-444.08426 c 0,0.41165 -0.3339,0.74623 -0.7456,0.74623 -0.4122,0 -0.745,-0.33458 -0.745,-0.74623 v -3.36777 c 0,-0.41228 0.3328,-0.74436 0.745,-0.74436 h 7.8878 c 0.2074,0 0.3734,-0.16729 0.3734,-0.37343 v -0.53257 c 0,-0.41165 0.334,-0.74561 0.7463,-0.74561 0.4116,0 0.7443,0.33396 0.7443,0.74561 v 0.53257 c 0,0.20614 0.1673,0.37343 0.3722,0.37343 h 7.8891 c 0.411,0 0.7462,0.33208 0.7462,0.74436 v 3.36777 c 0,0.41165 -0.3352,0.74623 -0.7462,0.74623 -0.4123,0 -0.7457,-0.33458 -0.7457,-0.74623 v -2.24936 c 0,-0.20551 -0.1666,-0.3728 -0.374,-0.3728 h -2.8553 c -0.2061,0 -0.3734,0.16729 -0.3734,0.3728 v 2.24936 c 0,0.41165 -0.3339,0.74623 -0.7443,0.74623 -0.4136,0 -0.7463,-0.33458 -0.7463,-0.74623 l 7e-4,-2.24936 c 0,-0.20551 -0.1673,-0.3728 -0.3729,-0.3728 h -5.5908 c -0.2042,0 -0.3721,0.16729 -0.3721,0.3728 v 2.24936 c 0,0.41165 -0.3334,0.74623 -0.7444,0.74623 -0.4135,0 -0.7462,-0.33458 -0.7462,-0.74623 v -2.24936 c 0,-0.20551 -0.1673,-0.3728 -0.3735,-0.3728 h -2.8565 c -0.2055,0 -0.3728,0.16729 -0.3728,0.3728 v 2.24936"
       style="clip-rule:evenodd;fill:#969a9e;fill-opacity:1;fill-rule:nonzero;stroke-width:0.626562;stroke-linejoin:round;stroke-miterlimit:2"
       id="path20-5" /><path
       d="m -1258.5424,-425.20971 c 0,0.41102 0.3328,0.7431 0.745,0.7431 0.4117,0 0.7456,-0.33208 0.7456,-0.7431 v -7.13654 c 0,-0.20676 0.1673,-0.37343 0.3728,-0.37343 h 15.775 c 0.2074,0 0.374,0.16667 0.374,0.37343 v 7.13654 c 0,0.41102 0.3334,0.7431 0.7457,0.7431 0.411,0 0.7462,-0.33208 0.7462,-0.7431 v -8.2562 c 0,-0.41165 -0.3352,-0.7431 -0.7462,-0.7431 h -18.0131 c -0.4122,0 -0.745,0.33145 -0.745,0.7431 v 8.2562"
       style="clip-rule:evenodd;fill:#969a9e;fill-opacity:1;fill-rule:nonzero;stroke-width:0.626562;stroke-linejoin:round;stroke-miterlimit:2"
       id="path21-7" /><path
       d="m -1243.2881,-436.42648 c -0.411,0 -0.7462,0.33333 -0.7462,0.7456 0,0.41228 0.3352,0.74561 0.7462,0.74561 h 3.5038 c 0.411,0 0.7462,-0.33333 0.7462,-0.74561 l 6e-4,-6.09769 c 0,-0.41165 -0.3358,-0.74624 -0.7468,-0.74624 -0.4123,0 -0.7457,0.33459 -0.7457,0.74624 v 0.19611 c 0,0.20677 -0.1666,0.37281 -0.374,0.37281 h -2.3841 c -0.411,0 -0.7462,0.33458 -0.7462,0.74686 0,0.4104 0.3352,0.74435 0.7462,0.74435 h 2.2926 c 0.2569,0 0.4655,0.20865 0.4655,0.46616 0,0.25752 -0.2086,0.46679 -0.4655,0.46679 h -2.2926 c -0.411,0 -0.7462,0.33208 -0.7462,0.74436 0,0.41165 0.3352,0.74498 0.7462,0.74498 h 2.3227 c 0.2406,0 0.4354,0.19549 0.4354,0.43546 0,0.23997 -0.1948,0.43421 -0.4354,0.43421 h -2.3227"
       style="clip-rule:evenodd;fill:#969a9e;fill-opacity:1;fill-rule:nonzero;stroke-width:0.626562;stroke-linejoin:round;stroke-miterlimit:2"
       id="path22-2" /><path
       d="m -1258.5424,-441.77857 c 0,-0.41165 0.3328,-0.74624 0.745,-0.74624 0.4117,0 0.7456,0.33459 0.7456,0.74624 v 0.19611 c 0,0.20802 0.1673,0.37281 0.3728,0.37281 h 2.3158 c 0.411,0 0.7444,0.33458 0.7444,0.74686 0,0.4104 -0.3334,0.74435 -0.7444,0.74435 h -2.2237 c -0.2562,0 -0.4649,0.20865 -0.4649,0.46616 0,0.25752 0.2087,0.46679 0.4649,0.46679 h 2.2237 c 0.411,0 0.7444,0.33208 0.7444,0.74436 0,0.41165 -0.3334,0.74498 -0.7444,0.74498 h -2.2537 c -0.2406,0 -0.4349,0.19549 -0.4349,0.43546 0,0.23997 0.1943,0.43421 0.4349,0.43421 h 2.2537 c 0.411,0 0.7444,0.33333 0.7444,0.7456 0,0.41228 -0.3334,0.74561 -0.7444,0.74561 h -3.4342 c -0.4122,0 -0.745,-0.33333 -0.745,-0.74749 v -6.09581"
       style="clip-rule:evenodd;fill:#969a9e;fill-opacity:1;fill-rule:nonzero;stroke-width:0.626562;stroke-linejoin:round;stroke-miterlimit:2"
       id="path23-4" /><path
       d="m -1246.3683,-429.86194 c 0,-0.20551 -0.1666,-0.37343 -0.3734,-0.37343 h -4.0983 c -0.2055,0 -0.3722,0.16792 -0.3722,0.37343 v 0.55827 c 0,0.20676 0.1667,0.37217 0.3722,0.37217 h 4.0983 c 0.2068,0 0.3734,-0.16541 0.3734,-0.37217 z m 4.4718,4.2838 c 0,0.41291 -0.3346,0.74498 -0.7468,0.74498 h -5.4023 v 1.80387 c 0,0.41103 -0.3327,0.74185 -0.7443,0.74185 h -2.2105 c -0.4111,0 -0.7456,-0.33082 -0.7456,-0.74185 0,-0.4129 0.3345,-0.74748 0.7456,-0.74748 h 1.0908 c 0.2074,0 0.3734,-0.16542 0.3734,-0.37218 v -0.68421 h -5.4034 c -0.4117,0 -0.745,-0.33207 -0.745,-0.74498 v -5.57639 c 0,-0.41166 0.3333,-0.74561 0.745,-0.74561 0.4116,0 0.745,0.33395 0.745,0.74561 v 4.45986 c 0,0.20614 0.166,0.37218 0.3721,0.37218 h 4.2863 v -0.74373 c 0,-0.20739 -0.166,-0.37343 -0.3734,-0.37343 h -2.0488 c -0.4123,0 -0.7444,-0.33396 -0.7444,-0.74686 v -2.79384 c 0,-0.41228 0.3321,-0.74561 0.7444,-0.74561 h 6.3358 c 0.411,0 0.7456,0.33333 0.7456,0.74561 v 2.79384 c 0,0.4129 -0.3346,0.74686 -0.7463,0.74686 h -2.0501 c -0.2049,0 -0.3722,0.16604 -0.3722,0.37343 v 0.74373 h 4.2863 c 0.2043,0 0.3729,-0.16604 0.3729,-0.37218 v -4.45986 c 0,-0.41166 0.332,-0.74561 0.7431,-0.74561 0.4122,0 0.7468,0.33395 0.7468,0.74561 v 5.57639"
       style="clip-rule:evenodd;fill:#969a9e;fill-opacity:1;fill-rule:nonzero;stroke-width:0.626562;stroke-linejoin:round;stroke-miterlimit:2"
       id="path24-3" /><path
       d="m -1249.6727,-438.93709 c 0,0 -0.1285,0.0714 -0.1285,0.19047 0,0.12156 0.1285,0.19111 0.1285,0.19111 l 0.5432,0.31328 c 0,0 0.1936,0.11278 0.3346,0.11278 0.1397,0 0.3352,-0.11278 0.3352,-0.11278 l 0.5432,-0.31328 c 0,0 0.1272,-0.0695 0.1272,-0.19111 0,-0.11904 -0.1272,-0.19047 -0.1272,-0.19047 l -0.5432,-0.31328 c 0,0 -0.1955,-0.11153 -0.3352,-0.11153 -0.141,0 -0.3346,0.11153 -0.3346,0.11153 z m -1.4831,3.97428 c -0.3565,0.20488 -0.8127,0.0815 -1.0188,-0.27381 -0.2043,-0.35714 -0.083,-0.81328 0.2732,-1.01816 l 1.2876,-0.74185 c 0,0 0.1259,-0.0702 0.1259,-0.19047 0,-0.12093 -0.1259,-0.19048 -0.1259,-0.19048 l -1.2563,-0.72493 c 0,0 -0.3997,-0.23872 -0.3997,-0.64411 0,-0.40413 0.3997,-0.64285 0.3997,-0.64285 l 1.2563,-0.72368 c 0,0 0.1259,-0.0702 0.1259,-0.18984 0,-0.11968 -0.1259,-0.19048 -0.1259,-0.19048 l -1.3522,-0.78132 c -0.3577,-0.20614 -0.4787,-0.66228 -0.2744,-1.01879 0.2068,-0.35651 0.661,-0.47869 1.0188,-0.27193 l 2.0921,1.20801 c 0,0 0.1936,0.11153 0.3346,0.11153 0.1397,0 0.3352,-0.11153 0.3352,-0.11153 l 2.0257,-1.16979 c 0.3571,-0.20676 0.8114,-0.0833 1.0181,0.27256 0.2055,0.35651 0.083,0.81202 -0.2732,1.01753 l -1.2875,0.74373 c 0,0 -0.1272,0.0708 -0.1272,0.19048 0,0.11967 0.1272,0.18984 0.1272,0.18984 l 1.2606,0.72368 c 0,0 0.3997,0.23872 0.3997,0.64285 0,0.40539 -0.3997,0.64411 -0.3997,0.64411 l -1.2606,0.72493 c 0,0 -0.1272,0.0696 -0.1272,0.19048 0,0.1203 0.1272,0.19047 0.1272,0.19047 l 1.2706,0.7312 c 0.3553,0.20551 0.4787,0.66227 0.2726,1.01753 -0.2062,0.35652 -0.6623,0.47995 -1.0182,0.27444 l -2.0081,-1.16039 c 0,0 -0.1955,-0.11028 -0.3352,-0.11028 -0.141,0 -0.3346,0.11028 -0.3346,0.11028 l -2.0263,1.17104"
       style="clip-rule:evenodd;fill:#969a9e;fill-opacity:1;fill-rule:nonzero;stroke-width:0.626562;stroke-linejoin:round;stroke-miterlimit:2"
       id="path25-1" /><path
       d="m -1194.8667,-425.55937 c 1.9329,0 2.8132,1.81953 2.8132,3.50937 0,2.03632 -1.2099,3.57202 -2.8132,3.57202 -1.8973,0 -2.8885,-1.74372 -2.8885,-3.46551 0,-2.06264 1.2437,-3.61588 2.8885,-3.61588 z m 3.0338,0.75062 c -0.7312,-0.80012 -1.7745,-1.22618 -3.0182,-1.22618 -1.151,0 -2.203,0.41854 -2.9599,1.18044 -0.7568,0.7525 -1.1723,1.78883 -1.1723,2.91664 0,1.95487 1.4192,3.93418 4.1322,3.93418 1.0902,0 2.104,-0.4035 2.8521,-1.14347 0.7538,-0.75125 1.173,-1.78194 1.173,-2.906 0,-1.05951 -0.3584,-2.03757 -1.0069,-2.75561"
       style="clip-rule:evenodd;fill:#969a9e;fill-opacity:1;fill-rule:nonzero;stroke-width:0.626562;stroke-linejoin:round;stroke-miterlimit:2"
       id="path26-4" /><path
       d="m -1147.0244,-425.55937 c 0.8697,0 1.5978,0.37092 2.104,1.07079 0.4568,0.63408 0.7074,1.49999 0.7074,2.43858 0,0.99372 -0.2901,1.90662 -0.8264,2.5689 -0.5163,0.64724 -1.2243,1.00312 -1.985,1.00312 -1.8959,0 -2.8884,-1.74372 -2.8884,-3.46551 0,-2.06264 1.2418,-3.61588 2.8884,-3.61588 z m 0.014,-0.47556 c -1.1516,0 -2.2005,0.41854 -2.9611,1.18044 -0.7531,0.7525 -1.1679,1.78883 -1.1679,2.91664 0,1.95487 1.4191,3.93418 4.129,3.93418 1.0934,0 2.1078,-0.4035 2.8515,-1.14347 0.7594,-0.75125 1.1754,-1.78194 1.1754,-2.906 0,-1.91727 -1.2612,-3.98179 -4.0269,-3.98179"
       style="clip-rule:evenodd;fill:#969a9e;fill-opacity:1;fill-rule:nonzero;stroke-width:0.626562;stroke-linejoin:round;stroke-miterlimit:2"
       id="path27-9" /><path
       d="m -1169.3187,-424.16528 c 0.2757,0.64098 0.7788,1.80137 1.2462,2.88782 h -2.478 c 0.3897,-0.93107 0.8365,-1.97805 1.2318,-2.88782 z m 4.1842,5.7794 c -0.1805,-0.0595 -0.3634,-0.052 -0.4549,-0.19736 l -3.2493,-7.7631 -0.8935,1.21491 0.016,0.0445 c 0,0 0.061,0.16792 0,0.29824 l -0.01,0.0188 c -0.7814,1.85776 -2.5232,6.08704 -2.5339,6.11461 -0.2199,0.22118 -0.4962,0.26942 -0.718,0.31203 -0.2325,0.0426 -0.4724,0.0119 -0.4724,0.27068 v 0.0827 h 2.7249 v -0.0827 c 0,-0.25063 -0.2481,-0.24624 -0.4455,-0.30075 -0.235,-0.0645 -0.3778,-0.11404 -0.3778,-0.28572 0,-0.11466 0.3014,-0.95112 0.7161,-1.95925 h 3.0339 c 0.4605,1.06202 0.827,1.98745 0.827,1.98745 l 0.025,0.0959 -0.01,0.0395 c -0.035,0.0752 -0.1923,0.11654 -0.3377,0.1535 -0.2161,0.0576 -0.458,0.0495 -0.458,0.26943 v 0.0827 h 3.0451 v -0.0827 c 0,-0.23183 -0.2237,-0.23747 -0.4386,-0.31329"
       style="clip-rule:evenodd;fill:#969a9e;fill-opacity:1;fill-rule:nonzero;stroke-width:0.626562;stroke-linejoin:round;stroke-miterlimit:2"
       id="path28-9" /><path
       d="m -1154.5318,-419.2029 c -0.6899,0.6203 -1.6805,0.8609 -2.9549,0.72493 -0.6197,-0.0664 -0.6522,-0.50125 -0.6522,-1.26565 v -4.54132 c 0,-0.74435 0.033,-1.20676 0.6522,-1.27255 1.2744,-0.13533 2.2675,0.11153 2.9549,0.73183 0.6829,0.6134 1.0445,1.5852 1.0445,2.81075 0,1.22869 -0.3616,2.19923 -1.0445,2.81201 z m -2.2224,-6.82075 h -3.4825 v 0.0733 c 0,0.26441 0.1911,0.20113 0.329,0.20865 0.2619,0.0119 0.6184,0.1015 0.6184,1.45675 v 4.54132 c 0,1.35713 -0.3565,1.37279 -0.6184,1.38595 -0.1379,0.008 -0.329,0.0157 -0.329,0.28195 v 0.0833 h 1.8114 l 1.146,0.002 c 3.4455,0 5.1955,-1.354 5.1955,-4.02503 0,-2.52817 -1.626,-4.00874 -4.6704,-4.00874"
       style="clip-rule:evenodd;fill:#969a9e;fill-opacity:1;fill-rule:nonzero;stroke-width:0.626562;stroke-linejoin:round;stroke-miterlimit:2"
       id="path29-6" /><path
       d="m -1161.3852,-425.70661 c 0.1391,-0.0269 0.3183,0.0125 0.3183,-0.24122 v -0.0758 h -3.0451 v 0.0758 c 0,0.25375 0.1755,0.21428 0.3158,0.24122 0.2513,0.0439 0.6297,0.18547 0.6297,1.55388 v 4.28693 c 0,1.36402 -0.3784,1.4367 -0.6297,1.48119 -0.1403,0.0226 -0.3158,0.057 -0.3158,0.31203 v 0.0827 h 3.0451 v -0.0827 c 0,-0.25501 -0.1792,-0.28947 -0.3183,-0.31203 -0.2518,-0.0445 -0.6284,-0.11717 -0.6284,-1.48119 v -4.28693 c 0,-1.36841 0.3766,-1.51002 0.6284,-1.55388"
       style="clip-rule:evenodd;fill:#969a9e;fill-opacity:1;fill-rule:nonzero;stroke-width:0.626562;stroke-linejoin:round;stroke-miterlimit:2"
       id="path30-0" /><path
       d="m -1199.8761,-425.72478 c 0.1353,-0.0138 0.3195,0.0351 0.3195,-0.22305 v -0.0758 h -3.0444 v 0.0758 c 0,0.25814 0.1873,0.20927 0.3264,0.22305 0.2469,0.0288 0.6216,0.14536 0.6216,1.50626 v 1.7456 h -4.3728 v -1.7456 c 0,-1.3609 0.3759,-1.47744 0.624,-1.50626 0.1341,-0.0138 0.3208,0.0351 0.3208,-0.22305 v -0.0758 h -3.0425 v 0.0758 c 0,0.25814 0.1848,0.20927 0.3208,0.22305 0.25,0.0288 0.6234,0.14536 0.6234,1.50626 v 4.41475 c 0,1.36339 -0.3734,1.47806 -0.6234,1.50813 -0.136,0.015 -0.3208,-0.0389 -0.3208,0.22306 v 0.0827 h 3.0425 v -0.0827 c 0,-0.26191 -0.1867,-0.20802 -0.3208,-0.22306 -0.2481,-0.0301 -0.624,-0.14474 -0.624,-1.50813 v -2.01001 h 4.3728 v 2.01001 c 0,1.36339 -0.3747,1.47806 -0.6216,1.50813 -0.1391,0.015 -0.3264,-0.0389 -0.3264,0.22306 v 0.0827 h 3.0444 v -0.0827 c 0,-0.26191 -0.1842,-0.20802 -0.3195,-0.22306 -0.2488,-0.0301 -0.6241,-0.14474 -0.6241,-1.50813 v -4.41475 c 0,-1.3609 0.3753,-1.47744 0.6241,-1.50626"
       style="clip-rule:evenodd;fill:#969a9e;fill-opacity:1;fill-rule:nonzero;stroke-width:0.626562;stroke-linejoin:round;stroke-miterlimit:2"
       id="path31-2" /><path
       d="m -1182.9019,-418.3608 c -0.1629,-0.0464 -0.3484,-0.1015 -0.4806,-0.24185 l -1.641,-1.88157 c -0.6986,-0.78445 -1.3627,-1.52442 -1.7543,-1.91665 l -0.029,-0.0652 c 0,-0.0771 0.09,-0.17168 0.1222,-0.20238 0,0 3.3897,-2.97491 3.5727,-3.02755 0.223,-0.0633 0.6002,0.062 0.6002,-0.25187 v -0.0758 h -2.854 v 0.0758 c 0,0.33395 0.9255,0.14097 0.9255,0.44486 0,0.12343 -3.4298,2.96551 -3.4298,2.96551 -0.1147,0.0908 -0.2118,0.12469 -0.2726,0.10965 -0.059,-0.0169 -0.086,-0.0908 -0.095,-0.11842 v 10e-4 -1.73683 c 0,-1.3565 0.3596,-1.44547 0.6184,-1.45675 0.141,-0.009 0.3296,0.0564 0.3296,-0.20927 v -0.0758 h -3.0451 v 0.0758 c 0,0.26566 0.1904,0.2005 0.3283,0.20927 0.2606,0.0113 0.6197,0.10025 0.6197,1.45675 v 4.54132 c 0,1.35713 -0.3591,1.44548 -0.6197,1.45989 -0.1379,0.006 -0.3283,-0.0583 -0.3283,0.20802 v 0.0827 h 3.0451 v -0.0827 c 0,-0.26629 -0.1886,-0.20176 -0.3296,-0.20802 -0.2588,-0.0144 -0.6184,-0.10276 -0.6184,-1.45989 v -1.50688 c 0,-0.005 0,-0.13095 0.1353,-0.24373 l 0.1786,-0.14662 c 0.067,-0.0401 0.176,-0.0808 0.2625,0.009 0.7901,0.80326 2.4862,2.74058 2.7838,3.08457 0.085,0.0933 0.075,0.12593 0.075,0.12593 0,0.13659 -0.1735,0.0752 -0.2588,0.0927 -0.2048,0.0451 -0.4605,-0.0163 -0.4605,0.25313 v 0.0827 h 3.0426 v -0.0827 c 0,-0.23935 -0.2124,-0.22807 -0.4204,-0.28822"
       style="clip-rule:evenodd;fill:#969a9e;fill-opacity:1;fill-rule:nonzero;stroke-width:0.626562;stroke-linejoin:round;stroke-miterlimit:2"
       id="path32-6" /><path
       d="m -1174.3901,-418.3608 c -0.1641,-0.0464 -0.349,-0.1015 -0.4812,-0.24185 l -1.6403,-1.88157 c -0.6993,-0.78445 -1.364,-1.52442 -1.755,-1.91665 l -0.028,-0.0652 c 0,-0.0771 0.09,-0.17168 0.1222,-0.20238 0,0 3.389,-2.97491 3.572,-3.02755 0.2224,-0.0633 0.599,0.062 0.599,-0.25187 v -0.0758 h -2.8534 v 0.0758 c 0,0.33395 0.9261,0.14097 0.9261,0.44486 0,0.12343 -3.4292,2.96551 -3.4292,2.96551 -0.1153,0.0908 -0.2124,0.12469 -0.2738,0.10965 -0.058,-0.0169 -0.086,-0.0908 -0.095,-0.11842 v 10e-4 -1.73683 c 0,-1.3565 0.3603,-1.44547 0.6178,-1.45675 0.1403,-0.009 0.3302,0.0564 0.3302,-0.20927 v -0.0758 h -3.0457 v 0.0758 c 0,0.26566 0.1917,0.2005 0.3283,0.20927 0.2613,0.0113 0.6197,0.10025 0.6197,1.45675 v 4.54132 c 0,1.35713 -0.3584,1.44548 -0.6197,1.45989 -0.1366,0.006 -0.3283,-0.0583 -0.3283,0.20802 v 0.0827 h 3.0457 v -0.0827 c 0,-0.26629 -0.1899,-0.20176 -0.3302,-0.20802 -0.2575,-0.0144 -0.6178,-0.10276 -0.6178,-1.45989 v -1.50688 c 0,-0.005 0,-0.13095 0.1353,-0.24373 l 0.1786,-0.14662 c 0.067,-0.0401 0.1761,-0.0808 0.2625,0.009 0.7901,0.80326 2.485,2.74058 2.7845,3.08457 0.083,0.0933 0.074,0.12593 0.074,0.12593 0,0.13659 -0.1735,0.0752 -0.2594,0.0927 -0.2042,0.0451 -0.4592,-0.0163 -0.4592,0.25313 v 0.0827 h 3.0419 v -0.0827 c 0,-0.23935 -0.2124,-0.22807 -0.4198,-0.28822"
       style="clip-rule:evenodd;fill:#969a9e;fill-opacity:1;fill-rule:nonzero;stroke-width:0.626562;stroke-linejoin:round;stroke-miterlimit:2"
       id="path33-7" /><path
       d="m -1087.7071,-422.43533 -1.0439,-0.58271 c -0.396,-0.2218 -1.0632,-0.69297 -1.0632,-1.36402 0,-0.36529 0.1416,-1.2149 1.4667,-1.2149 0.7175,0 1.1354,0.22055 1.3371,0.71365 0.2262,0.55451 0.5664,0.45551 0.5664,0.45551 l -0.2199,-1.4342 -0.038,-0.0188 c -0.021,-0.0113 -0.4919,-0.24498 -1.4511,-0.24498 -1.6404,0 -2.7431,0.84147 -2.7431,2.09146 0,1.0144 0.7888,1.69485 1.4499,2.08206 l 1.2399,0.72368 c 0.9029,0.52506 1.0263,1.05952 1.0263,1.56703 0,0.62531 -0.4768,1.25814 -1.5457,1.25814 -1.2212,0 -1.8634,-0.73934 -2.0138,-1.1911 -0.2349,-0.70488 -0.5188,-0.54134 -0.5188,-0.54134 l 0.2544,1.79572 0.034,0.0232 c 0.2136,0.12156 1.0056,0.4411 2.0751,0.4411 1.7112,0 2.8615,-0.90037 2.8615,-2.24246 0,-0.93546 -0.5495,-1.69109 -1.6735,-2.31702"
       style="clip-rule:evenodd;fill:#969a9e;fill-opacity:1;fill-rule:nonzero;stroke-width:0.626562;stroke-linejoin:round;stroke-miterlimit:2"
       id="path34-9" /><path
       d="m -1133.3891,-426.02115 v 0.0815 c 0,0.26065 0.2149,0.21177 0.4035,0.23621 0.3621,0.052 0.8584,0.19423 0.8584,1.55701 v 3.09333 c 0,2.49685 -2.3039,2.52692 -2.3966,2.52692 -0.094,0 -2.2281,-0.0301 -2.2281,-2.52692 v -3.09333 c 0,-1.36466 0.4449,-1.50501 0.7663,-1.55701 0.1673,-0.0244 0.3709,0.0244 0.3709,-0.23621 v -0.0815 h -3.2324 v 0.0815 c 0,0.25563 0.1773,0.21177 0.3164,0.23621 0.2481,0.047 0.6278,0.19235 0.6278,1.55701 v 3.09333 c 0,3.03193 3.344,3.06702 3.3791,3.06702 0.03,0 3.0376,-0.0351 3.0376,-3.06702 v -3.09333 c 0,-1.36466 0.3909,-1.50814 0.676,-1.55701 0.1485,-0.0244 0.3333,0.0213 0.3333,-0.23621 v -0.0815 h -2.9122"
       style="clip-rule:evenodd;fill:#969a9e;fill-opacity:1;fill-rule:nonzero;stroke-width:0.626562;stroke-linejoin:round;stroke-miterlimit:2"
       id="path35-1" /><path
       d="m -1117.544,-425.71852 c 0.1372,-0.0169 0.3258,0.0401 0.3258,-0.22117 v -0.0815 h -3.0413 v 0.0815 c 0,0.26127 0.1829,0.20426 0.3189,0.22117 0.2481,0.0301 0.6247,0.1485 0.6247,1.50939 v 4.41287 c 0,1.36027 -0.3766,1.47931 -0.6234,1.50813 -0.1373,0.0138 -0.3202,-0.042 -0.3202,0.2193 v 0.0827 h 3.0413 v -0.0827 c 0,-0.26128 -0.1886,-0.20551 -0.3264,-0.2193 -0.2456,-0.0288 -0.6209,-0.14786 -0.6209,-1.50813 v -4.41287 c 0,-1.36089 0.3753,-1.47931 0.6215,-1.50939"
       style="clip-rule:evenodd;fill:#969a9e;fill-opacity:1;fill-rule:nonzero;stroke-width:0.626562;stroke-linejoin:round;stroke-miterlimit:2"
       id="path36-6" /><path
       d="m -1081.5612,-425.71852 c 0.1366,-0.0169 0.324,0.0401 0.324,-0.22117 v -0.0815 h -3.0389 v 0.0815 c 0,0.26127 0.183,0.20426 0.319,0.22117 0.2487,0.0301 0.6228,0.1485 0.6228,1.50939 v 4.41287 c 0,1.36027 -0.3741,1.47931 -0.6228,1.50813 -0.136,0.0138 -0.319,-0.042 -0.319,0.2193 v 0.0827 h 3.0389 v -0.0827 c 0,-0.26128 -0.1874,-0.20551 -0.324,-0.2193 -0.2468,-0.0288 -0.6221,-0.14786 -0.6221,-1.50813 v -4.41287 c 0,-1.36089 0.3753,-1.47931 0.6221,-1.50939"
       style="clip-rule:evenodd;fill:#969a9e;fill-opacity:1;fill-rule:nonzero;stroke-width:0.626562;stroke-linejoin:round;stroke-miterlimit:2"
       id="path37-1" /><path
       d="m -1110.0898,-426.02115 v 0.0814 c 0,0.25564 0.2682,0.2431 0.5063,0.29887 0.2744,0.0658 0.4386,0.11654 0.4386,0.2832 -0.01,0.23622 -1.2807,3.12592 -2.2945,5.29946 l -2.2788,-5.39093 c -0.026,-0.057 -0.033,-0.10025 -0.016,-0.12594 0.031,-0.067 0.1949,-0.099 0.3258,-0.12156 0.2112,-0.042 0.4699,-0.0144 0.4699,-0.2431 v -0.0814 h -3.0438 v 0.0814 c 0,0.4104 0.7105,0.11779 0.8935,0.51315 l 3.3865,7.5319 0.1003,-0.25063 c 0.3271,-0.73683 3.1566,-7.18603 3.1704,-7.21736 0.1071,-0.23997 0.401,-0.26441 0.5514,-0.30576 0.1648,-0.0451 0.3201,-0.0106 0.3201,-0.2713 v -0.0814 h -2.5294"
       style="clip-rule:evenodd;fill:#969a9e;fill-opacity:1;fill-rule:nonzero;stroke-width:0.626562;stroke-linejoin:round;stroke-miterlimit:2"
       id="path38-15" /><path
       d="m -1066.1734,-426.02115 v 0.0815 c 0,0.25438 0.2468,0.24122 0.4649,0.29887 0.2468,0.0633 0.4204,0.0789 0.3991,0.2832 -0.029,0.198 -1.2863,2.23181 -1.8227,3.06514 0,0 -0.1121,0.17481 -0.1879,0.29574 -0.1291,-0.22556 -1.9123,-3.45862 -1.9123,-3.45862 l -0.02,-0.0865 v -0.0332 c 0.036,-0.067 0.1961,-0.099 0.3309,-0.12156 0.2086,-0.042 0.4674,-0.0144 0.4674,-0.2431 v -0.0815 h -3.0426 v 0.0815 c 0,0.23433 0.2337,0.22117 0.4354,0.27443 0.1817,0.0495 0.3666,0.0971 0.4556,0.23872 l 2.3778,4.21738 c 0,0 0.073,0.13973 0.073,0.26379 v 1.14911 c 0,1.36027 -0.3747,1.47931 -0.6247,1.50813 -0.1341,0.0138 -0.3208,-0.042 -0.3208,0.2193 v 0.0827 h 3.0438 v -0.0827 c 0,-0.26128 -0.1886,-0.20551 -0.3239,-0.2193 -0.2488,-0.0288 -0.6241,-0.14786 -0.6241,-1.50813 v -1.31578 c 0,-0.18421 0.1116,-0.37092 0.1128,-0.37406 l 2.3734,-3.88154 c 0.1623,-0.24374 0.3973,-0.2594 0.5514,-0.30075 0.1623,-0.0451 0.3208,-0.0106 0.3208,-0.2713 v -0.0815 h -2.5319"
       style="clip-rule:evenodd;fill:#969a9e;fill-opacity:1;fill-rule:nonzero;stroke-width:0.626562;stroke-linejoin:round;stroke-miterlimit:2"
       id="path39-0" /><path
       d="m -1124.3572,-426.02114 v 0.0815 c 0,0.26065 0.2036,0.21178 0.3859,0.23622 0.3421,0.052 0.8164,0.19423 0.8164,1.557 v 3.81576 l -4.7443,-5.69043 h -1.9774 v 0.0815 c 0,0.26065 0.2092,0.21178 0.3897,0.23622 0.344,0.052 0.812,0.19423 0.812,1.557 v 4.22114 c 0,1.36904 -0.3941,1.53759 -0.6786,1.60337 -0.1554,0.0376 -0.3289,0 -0.3289,0.25314 v 0.0827 h 2.8508 v -0.0827 c 0,-0.25314 -0.2023,-0.21867 -0.3815,-0.25314 -0.3453,-0.0677 -0.8183,-0.23433 -0.8183,-1.60337 v -4.31638 l 5.3571,6.52188 0.1641,0.23935 v -0.0401 0.002 -0.27381 -6.35396 c 0,-1.36465 0.391,-1.50813 0.6736,-1.557 0.1516,-0.0244 0.3352,0.0213 0.3352,-0.23622 v -0.0815 h -2.8527"
       style="clip-rule:evenodd;fill:#969a9e;fill-opacity:1;fill-rule:nonzero;stroke-width:0.626562;stroke-linejoin:round;stroke-miterlimit:2"
       id="path40-7" /><path
       d="m -1100.6061,-420.10327 c -0.2676,0 -0.3785,0.27318 -0.5057,0.58896 -0.1886,0.46303 -0.3991,0.98809 -1.1403,0.98809 h -2.1159 c -0.1235,-0.0106 -0.4856,-0.0796 -0.4856,-0.47368 v -2.68356 h 0.802 c 1.364,0 1.4342,0.47055 1.4787,0.81265 0.027,0.18107 0.058,0.38721 0.3151,0.38721 h 0.084 v -3.04195 h -0.084 c -0.2575,0 -0.2876,0.20551 -0.3151,0.38596 -0.045,0.34335 -0.1147,0.81202 -1.4787,0.81202 h -0.802 v -2.44045 c 0,-0.60839 0.4693,-0.69987 0.6128,-0.71178 h 1.8627 c 0.7325,0 0.8352,0.40601 0.9261,0.76691 0.061,0.24311 0.1216,0.49123 0.4004,0.49123 h 0.082 v -1.79949 h -5.9793 v 0.0815 c 0,0.26441 0.1873,0.27631 0.3252,0.2807 0.2631,0.0138 0.6165,0.0307 0.6165,1.3872 v 4.53631 c 0,1.35462 -0.3534,1.37091 -0.6165,1.38532 -0.1379,0.008 -0.3252,0.0157 -0.3252,0.28133 v 0.0827 h 6.0983 l 0.344,-2.11715 h -0.1"
       style="clip-rule:evenodd;fill:#969a9e;fill-opacity:1;fill-rule:nonzero;stroke-width:0.626562;stroke-linejoin:round;stroke-miterlimit:2"
       id="path41-13" /><path
       d="m -1072.3012,-426.02429 h -7.3577 l -0.1391,1.80325 h 0.092 c 0.265,0 0.3809,-0.23246 0.5012,-0.47619 0.188,-0.36904 0.3992,-0.78696 1.1423,-0.78696 h 1.2506 c 0.1435,0.16854 0.2562,0.51754 0.2562,1.26565 v 4.41914 c 0,1.36214 -0.3746,1.48244 -0.6265,1.51064 -0.1335,0.0138 -0.3227,-0.0426 -0.3227,0.21992 v 0.0827 h 3.0495 v -0.0827 c 0,-0.26253 -0.1867,-0.20614 -0.3233,-0.21992 -0.25,-0.0282 -0.6241,-0.1485 -0.6241,-1.51064 v -4.41914 c 0,-0.74811 0.1128,-1.09711 0.2556,-1.26565 h 1.2469 c 0.7469,0 0.9561,0.41792 1.1429,0.78696 0.1234,0.24373 0.2399,0.47619 0.5043,0.47619 h 0.091 l -0.1391,-1.80325"
       style="clip-rule:evenodd;fill:#969a9e;fill-opacity:1;fill-rule:nonzero;stroke-width:0.626562;stroke-linejoin:round;stroke-miterlimit:2"
       id="path42-37" /><path
       d="m -1094.3687,-423.90901 c 0,0.26943 -0.1178,1.6253 -2.386,1.6253 h -0.5871 l -0.053,-0.0746 v -2.95423 c 0,-0.052 0.1353,-0.20113 0.6472,-0.23371 0.8503,-0.0508 1.4881,0.11905 1.8973,0.50438 0.4467,0.4198 0.4818,0.97055 0.4818,1.13282 z m 1.2901,4.95673 c -0.8114,-0.99372 -1.9317,-2.89158 -1.9455,-2.90662 -0.037,-0.0633 -0.034,-0.0896 -0.03,-0.0965 l 0.03,-0.0238 c 1.3152,-0.36967 1.9586,-0.99999 1.9586,-1.92981 0,-0.79009 -0.4511,-2.11401 -3.4724,-2.11401 l -1.0238,0.002 -0.1153,-0.002 -1.8145,0.002 v 0.0815 c 0,0.26441 0.1886,0.27631 0.3252,0.2807 0.2632,0.0138 0.6178,0.0307 0.6178,1.38721 v 4.47552 c 0,1.36027 -0.3747,1.55576 -0.6209,1.5852 -0.1379,0.0138 -0.3221,-0.11904 -0.3221,0.14223 v 0.0827 h 3.0413 v -0.0827 c 0,-0.26127 -0.1879,-0.12844 -0.3245,-0.14223 -0.2463,-0.0294 -0.6228,-0.22493 -0.6228,-1.5852 v -1.95988 l 0.01,-0.0395 0.6704,0.001 c 0.088,0.008 0.4261,0.0758 0.7695,0.57706 l 1.5344,2.30888 c 0.859,1.29322 2.7794,1.33834 2.8559,1.33834 0,0 -0.7738,-0.46115 -1.5238,-1.3822"
       style="clip-rule:evenodd;fill:#969a9e;fill-opacity:1;fill-rule:nonzero;stroke-width:0.626562;stroke-linejoin:round;stroke-miterlimit:2"
       id="path43-5" /><path
       d="m -1200.0334,-450.42193 v 2.73932 h -5.7794 c -1.4668,0 -2.4317,-0.35776 -2.4317,-0.35776 0,0 0.1648,1.14598 0.5984,1.56389 0.4342,0.41792 2.2318,-0.0507 3.0582,-0.0507 h 4.5545 v 9.05757 c -3.9905,1.77255 -8.2349,2.31891 -8.2349,2.31891 0.9919,2.31326 2.881,3.35586 2.881,3.35586 0,0 0.2205,-0.51065 0.8057,-0.94611 1.8872,-1.40224 3.5626,-3.07955 4.5482,-4.13405 v 6.68729 c 1.5671,0 3.0038,-0.48433 3.0038,-1.7857 v -22.47852 c 0,-0.7832 0.3164,-1.5263 0.3164,-1.5263 0,0 -1.1416,-1.23683 -3.5081,-1.28069 0,0 0.1879,0.99999 0.1879,6.83704 z m 18.0788,15.40651 c -0.359,-0.35902 -0.4292,-0.90162 -0.4292,-1.29698 v -2.83581 l -0.023,-0.0445 -0.029,0.0445 -0.075,0.45926 6e-4,10e-4 c -0.2775,1.5476 -1.114,4.61462 -3.3809,4.61462 h -2.401 c -1.4392,0 -2.3427,-0.71929 -2.3427,-2.48118 v -8.44479 c 0.963,-0.30263 4.52,-1.46115 6.8972,-2.80387 0.5996,-0.33771 1.7011,-0.62405 1.7011,-0.62405 0,0 -0.8239,-2.16728 -3.2168,-3.01877 -2.0576,3.49746 -4.5883,5.68792 -5.3815,6.32639 -6e-4,-4.64972 -6e-4,-9.43852 -6e-4,-9.43852 0,-0.78321 0.359,-1.52693 0.359,-1.52693 0,0 -0.8101,-1.09022 -3.3784,-1.17418 0,0 0.092,0.96804 0.092,6.14657 0,5.17853 0,9.71608 0,14.54374 0,3.77566 1.0232,5.3972 4.5865,5.3972 h 5.0513 c 3.0752,0 3.3058,-2.50562 1.968,-3.84396"
       style="clip-rule:evenodd;fill:#969a9e;fill-opacity:1;fill-rule:nonzero;stroke-width:0.626562;stroke-linejoin:round;stroke-miterlimit:2"
       id="path44-2" /><path
       d="m -1122.7676,-433.44838 c 0,0 -8.4818,0.86716 -14.5977,0.31767 -3.8464,-0.34837 -4.9128,-2.29322 -5.1748,-3.69045 v -6.45295 c -6e-4,-1.20426 0.5226,-1.71365 0.5226,-1.71365 0,0 -0.4461,-1.68482 -2.9091,-2.22931 -0.3089,1.23621 -0.9273,1.36027 -0.9743,1.38032 h -1.3064 c -1.5157,0 -2.5163,-0.36027 -2.5163,-0.36027 0,0 0.2494,1.14723 0.6823,1.56515 0.4342,0.41666 1.8096,-0.0507 2.6366,-0.0507 h 1.2143 v 10.07197 c -0.1003,0.0501 -0.203,0.10088 -0.3083,0.14912 -1.9273,0.88157 -4.0507,1.38094 -4.0507,1.38094 1.1466,2.12029 3.171,2.78632 3.2262,2.83394 0.2374,-1.03069 0.8164,-1.44172 1.7525,-2.65286 0.4204,-0.54386 0.8759,-1.354 1.2506,-2.08394 0.5758,1.88908 1.8565,3.96488 4.7061,4.37089 5.4235,0.77067 14.2041,0.31328 14.2041,0.31328 0,0 -0.3972,-1.66039 1.6423,-3.1491 z m -5.812,-14.69725 v 2.97554 h -8.4724 v -2.97491 z m 0,7.10834 h -8.4724 v -2.97554 l 8.4724,-6.3e-4 z m 0,4.13217 h -8.4724 v -2.97679 l 8.4724,-6.3e-4 z m -10.5545,-14.86767 4.6498,-6.3e-4 c -0.011,0.15476 -0.024,0.3114 -0.042,0.47431 -0.1122,0.99811 -0.3559,1.66289 -0.5038,1.99497 h -2.6572 v 0.0257 c -0.4712,-0.3609 -1.2356,-0.74561 -2.4067,-0.81578 0,0 0.2469,1.40036 0.2469,3.2625 v 12.34389 c 1.7024,0 2.666,-0.17607 2.7738,-1.26253 l 8.4937,-6.2e-4 v 1.26315 c 1.8076,0 2.7951,-0.18547 2.7951,-1.46177 v -10.79064 c 0,-1.20551 0.5683,-1.57831 0.5683,-1.57831 0,0 -0.7231,-1.27129 -2.4286,-2.01753 -0.3546,0.71867 -1.0401,1.03195 -1.0401,1.03195 h -5.8446 c 0.7807,-0.35276 2.156,-1.11152 3.3102,-2.46928 h 3.1622 c 2.8271,0 4.5476,0.0451 4.5476,0.0451 0,0 0.4493,-0.3327 0.4493,-0.73558 0,0 -0.7732,-1.22367 -2.6028,-2.12906 -0.6209,1.22619 -1.6165,1.63658 -1.6491,1.66478 h -2.9417 c 0.6717,-0.33521 1.4022,-0.77443 2.062,-1.3352 0.5232,-0.44674 1.0213,-0.63722 1.0213,-0.63722 0,0 -0.4229,-1.75625 -2.926,-2.42604 0,0 -0.2024,1.39347 -0.9148,2.90035 -0.2845,0.59962 -0.5915,1.104 -0.8559,1.49811 l -2.7926,6.2e-4 c 0.1943,-0.37029 0.2801,-0.86214 0.1748,-1.46239 -0.4423,-2.52379 -5.2587,-2.82955 -5.2587,-2.82955 0,0 1.8822,0.64849 2.3534,3.33393 0.068,0.39098 0.1917,0.70488 0.3458,0.95801 h -2.8922 c -1.4724,0 -2.6435,-0.35776 -2.6435,-0.35776 0,0 0.376,1.14661 0.8096,1.56452 0.4335,0.41729 1.8107,-0.052 2.6365,-0.052 z m -7.1139,-0.46491 c 0.8759,2.89283 3.6666,2.0664 2.9122,-0.57832 -0.7625,-2.67855 -5.515,-2.88594 -5.515,-2.88594 0,0 1.9455,1.29197 2.6028,3.46426"
       style="clip-rule:evenodd;fill:#969a9e;fill-opacity:1;fill-rule:nonzero;stroke-width:0.626562;stroke-linejoin:round;stroke-miterlimit:2"
       id="path45-65" /><path
       d="m -1093.276,-432.76296 c 0,0 -9.3859,-3.95673 -11.884,-14.35264 l 6.5188,-6.2e-4 c 2.8276,0 4.5475,0.0432 4.5475,0.0432 0,0 0.4505,-0.30576 0.4505,-0.84711 0,0 -0.8345,-1.30513 -3.171,-2.31013 -0.5357,1.32392 -1.6171,1.93043 -1.6497,1.95863 l -7.5683,6.2e-4 c 0.2544,-1.78194 0.3992,-3.7318 0.3992,-5.88216 0.04,-0.55763 0.2944,-1.61151 0.2944,-1.61151 0,0 -1.27,-0.98621 -4.2468,-1.02443 0,0 0.7863,3.69609 0.2826,8.5181 l -8.1265,6.3e-4 c -1.4424,0 -2.4336,-0.35777 -2.4336,-0.35777 0,0 0.1667,1.14724 0.6009,1.56327 0.4323,0.41667 1.8095,-0.0501 2.6353,-0.0501 l 7.1791,-6.3e-4 c -0.8176,5.66098 -3.5137,12.51494 -11.1559,16.80939 0,0 11.4918,-1.31515 14.3376,-16.52932 1.8271,12.49364 9.6403,16.65902 9.6403,16.65902 0,0 -0.2124,-1.31139 3.3496,-2.58645"
       style="clip-rule:evenodd;fill:#969a9e;fill-opacity:1;fill-rule:nonzero;stroke-width:0.626562;stroke-linejoin:round;stroke-miterlimit:2"
       id="path46-17" /><path
       d="m -1157.7066,-442.75788 h -3.6792 l 0.4223,-5.37402 h 3.3045 c -0.01,2.08833 -0.021,3.86275 -0.048,5.37402 z m -0.4066,6.9636 h -3.8189 l 0.4555,-5.80885 3.7462,-6.3e-4 c -0.069,2.88469 -0.1899,4.66976 -0.3828,5.80948 z m -6.0363,-6.96298 h -3.4925 l 0.6598,-5.37464 h 3.2631 z m -0.5571,6.96298 h -3.7888 l 0.7118,-5.8076 3.5419,-6.2e-4 z m 12.4655,-5.76499 c 0,0 0.4499,-0.31453 0.4499,-0.67418 0,0.0545 -0.6498,-1.16854 -2.0458,-1.79573 -0.3013,0.59461 -0.7443,0.93797 -1.0307,1.11403 0,-1.1654 0,-2.4298 -0.019,-3.80949 0,-1.20613 0.5852,-1.62656 0.5852,-1.62656 0,0 -0.817,-1.3872 -2.6992,-2.16602 -0.4649,0.86654 -1.2707,1.21114 -1.3177,1.22931 h -9.0011 c -0.329,-0.32455 -0.8841,-0.72681 -1.7707,-1.00124 0.3264,-0.52631 0.5933,-1.02067 0.8202,-1.48119 v 0.0276 h 10.0318 c 2.8277,0 4.547,0.0439 4.547,0.0439 0,0 0.4505,-0.30764 0.4505,-0.84774 0,0 -0.8484,-1.27819 -2.7356,-1.9342 -0.5852,1.21491 -1.4843,1.55513 -1.5169,1.5827 h -10.2618 c 0.4787,-1.11779 0.7769,-1.96051 1.3126,-2.48244 0,0 -0.7249,-1.43545 -3.7468,-1.83332 0,0 0.2024,5.85397 -2.7525,11.42723 1.4975,-1.354 2.5576,-2.60148 3.339,-3.7224 l -0.9255,6.75245 h -0.033 c -1.5407,0 -2.5169,-0.35839 -2.5169,-0.35839 0,0 0.2494,1.14786 0.6843,1.56452 0.2901,0.27945 1.0043,0.16165 1.6929,0.0539 l -1.2293,8.96922 c 1.8609,0.1604 2.9292,0.0445 3.2174,-1.48871 l 0.087,-0.70989 h 10.253 c -0.1391,0.3916 -0.302,0.64473 -0.4931,0.83646 -1.0645,1.06327 -4.7863,0.61027 -4.7863,0.61027 0,0 -0.1203,-0.0119 -0.1353,0.0877 -0.016,0.0965 0.1002,0.11027 0.1002,0.11027 3.4405,0.40288 3.3446,2.88469 3.3446,2.88469 3.0025,0 4.4129,-0.89473 5.0338,-4.52377 1.7688,0.0113 2.7325,0.0388 2.7325,0.0388 0,0 0.4492,-0.34899 0.4492,-0.70864 0,0 -0.6585,-1.09899 -2.0645,-1.7669 -0.2638,0.4812 -0.641,0.83834 -0.933,1.06703 0.1542,-1.4649 0.2262,-3.27879 0.2488,-5.5081 1.7362,0.0119 2.6353,0.0388 2.6353,0.0388 z m -22.3219,4.00623 c 0.2393,-2.31326 1.5952,-10.29565 1.5952,-10.29565 l -0.023,-0.0426 -0.043,0.0294 c 0,0 -0.9611,3.29759 -2.8057,8.95356 -0.849,2.60524 -1.4662,0.55639 -3.3183,1.0426 0,0 3.2907,0.17919 2.4411,5.4185 -0.4787,2.95173 3.9354,2.95988 3.5896,0.0802 -0.3421,-2.85712 -1.6729,-2.89409 -1.4361,-5.18605 z m -2.9279,-8.69667 c 0.5125,2.67855 3.1923,1.82329 2.7111,-0.69298 -0.4831,-2.51564 -5.0557,-2.83205 -5.0557,-2.83205 0,0 1.8314,0.84585 2.3446,3.52503 z m 2.0244,-5.97551 c 0.4649,2.92666 3.4881,2.21865 3.052,-0.53008 -0.438,-2.75123 -5.8095,-3.12716 -5.8095,-3.12716 0,0 2.2926,0.73119 2.7575,3.65724"
       style="clip-rule:evenodd;fill:#969a9e;fill-opacity:1;fill-rule:nonzero;stroke-width:0.626562;stroke-linejoin:round;stroke-miterlimit:2"
       id="path47-34" /><path
       d="m -1066.4967,-442.65318 c -0.5946,1.35149 -1.6542,1.97743 -1.6874,2.00437 l -6.7443,6.3e-4 c -0.032,-1.1723 -0.051,-1.61841 -0.01,-1.7243 0.1278,-0.30827 0.2688,-0.50563 0.2688,-0.50563 0,0 -0.131,-0.13847 -0.4004,-0.31704 0.9242,-0.1886 3.5758,-0.8327 5.3214,-2.32141 0.3935,-0.33835 1.2851,-0.651 1.2851,-0.651 0,0 -0.052,-0.13221 -0.1648,-0.33834 0.9467,-0.32268 2.6316,-0.97807 4.1178,-1.98871 0.2468,-0.19048 1.0025,-0.52005 1.0025,-0.52005 0,0 -0.9004,-1.97805 -3.4574,-3.0902 -0.4292,0.78759 -1.1266,1.19924 -1.1266,1.19924 h -5.7161 c 1.2306,-0.48245 3.3214,-1.43796 4.8208,-2.84835 0.4536,-0.46866 1.0727,-0.7243 1.0727,-0.7243 0,0 -1.1178,-2.29071 -4.0833,-2.98494 -0.3252,3.33644 -1.8804,5.69544 -2.5364,6.55759 l -11.8144,6.3e-4 c -0.2037,-1.3753 -0.5219,-2.44798 -0.5219,-2.44798 0,0 -0.1097,3.26313 -2.3177,4.91412 -2.745,2.05199 -0.4511,4.99746 1.963,2.8684 0.9693,-0.85463 1.1247,-2.55825 1.0088,-4.1541 l 18.8858,-10e-4 c -0.3108,1.03069 -1.0451,2.1372 -1.5457,2.81326 -0.4292,-0.64473 -1.2218,-1.55137 -2.5169,-2.06139 -0.4348,0.78696 -0.9499,1.00187 -0.9975,1.02004 h -9.7123 c -1.6053,0 -2.4887,-0.36528 -2.4887,-0.36528 0,0 0.1698,1.17355 0.614,1.59961 0.4436,0.42669 1.8502,-0.0526 2.6961,-0.0526 h 8.9235 c -0.6993,1.61527 -2.3064,3.03381 -2.8546,3.48618 -0.5614,-0.33834 -1.5733,-0.76002 -3.1247,-0.73433 0,0 0.3208,1.37468 0.4417,3.37278 l -10.0212,6.3e-4 c -1.7287,0 -2.4893,-0.36716 -2.4893,-0.36716 0,0 0.1685,1.17292 0.614,1.59961 0.443,0.42794 1.8502,-0.0514 2.6967,-0.0514 h 9.2431 c 0.01,0.6911 -0.011,1.42793 -0.077,2.19296 -0.1992,2.31264 -0.4724,3.00875 -0.7237,3.16915 -0.582,0.37531 -5.2762,-0.46491 -5.2762,-0.46491 0,0 -0.1059,-0.0113 -0.1247,0.0871 -0.018,0.0971 0.1002,0.12218 0.1002,0.12218 3.4618,0.40602 4.0301,4.15724 4.0301,4.15724 4.2136,0 5.1108,-1.74623 5.0695,-6.23617 -0.012,-1.24497 -0.029,-2.23431 -0.047,-3.02754 h 6.4442 c 2.8922,0 4.6516,0.0451 4.6516,0.0451 0,0 0.4605,-0.38659 0.4605,-0.86841 0,0 -0.9837,-1.54385 -3.1547,-2.36402 z m -12.1522,-10.7756 c 0.4937,2.81577 4.0551,2.1159 3.5908,-0.52882 -0.463,-2.64534 -5.2744,-3.2011 -5.2744,-3.2011 0,0 1.1911,0.91353 1.6836,3.72992 z m -5.312,0.41729 c 0.4499,2.57266 3.9254,1.93294 3.5019,-0.48308 -0.423,-2.41727 -5.2882,-3.15348 -5.2882,-3.15348 0,0 1.3346,1.06264 1.7863,3.63656"
       style="clip-rule:evenodd;fill:#969a9e;fill-opacity:1;fill-rule:nonzero;stroke-width:0.626562;stroke-linejoin:round;stroke-miterlimit:2"
       id="path48-61" /><path
       d="m -1237.8921,-438.912 c 6.1816,-3.88468 9.6628,-8.34517 9.6992,-8.39217 3.5112,-4.20673 2.4047,-7.38903 2.3565,-7.52124 -1.3152,-4.61024 -6.881,-5.86273 -7.1172,-5.91286 l -5.6497,-1.32768 c -6.2336,-1.4837 -10.0243,-4.49245 -10.0607,-4.52189 l -0.1792,-0.14411 -0.1792,0.14411 c -0.036,0.0294 -3.8276,3.03819 -10.0613,4.52189 l -5.6547,1.32768 c -0.2312,0.0501 -5.7945,1.30262 -7.1171,5.93291 -0.043,0.11216 -1.1492,3.29446 2.3702,7.50997 0.028,0.0388 3.5433,4.54194 9.7813,8.44103 v -0.67355 c -5.9574,-3.79446 -9.3039,-8.07889 -9.3377,-8.12337 -2.037,-2.43795 -2.4292,-4.51312 -2.4292,-5.75183 0,-0.76817 0.1504,-1.21679 0.1548,-1.22806 1.2343,-4.31513 6.6472,-5.53881 6.7017,-5.54946 l 5.6616,-1.33144 c 5.609,-1.33458 9.285,-3.88656 10.1083,-4.49746 0.8227,0.6109 4.5,3.16288 10.1083,4.49746 l 5.6579,1.32894 c 0.059,0.0131 5.4711,1.23683 6.6986,5.53316 0.01,0.0188 0.1616,0.47305 0.1616,1.25249 0,1.24122 -0.3953,3.3095 -2.421,5.73805 -0.041,0.0514 -3.354,4.29383 -9.2543,8.07325 v 0.67418"
       style="clip-rule:evenodd;fill:#969a9e;fill-opacity:1;fill-rule:nonzero;stroke-width:0.626562;stroke-linejoin:round;stroke-miterlimit:2"
       id="path49-0" /><path
       d="m -1249.0806,-466.38733 c -0.1416,0.21428 -3.4743,5.38655 -3.9699,17.1847 l 0.5683,0.0244 c 0.4129,-9.82448 2.8677,-15.06065 3.639,-16.47981 0.7701,1.41916 3.2256,6.65533 3.6385,16.47981 l 0.5701,-0.0244 c -0.4962,-11.79815 -3.8283,-16.97042 -3.9711,-17.1847 l -0.2375,-0.36027 -0.2374,0.36027"
       style="clip-rule:evenodd;fill:#969a9e;fill-opacity:1;fill-rule:nonzero;stroke-width:0.626562;stroke-linejoin:round;stroke-miterlimit:2"
       id="path50-5" /><path
       d="m -1248.8432,-455.80537 -0.9862,-0.98747 v -3.22553 h 1.9731 v 3.22553 l -0.9869,0.98747"
       style="clip-rule:evenodd;fill:#969a9e;fill-opacity:1;fill-rule:nonzero;stroke-width:0.626562;stroke-linejoin:round;stroke-miterlimit:2"
       id="path51-1" /><rect
       x="-1249.0337"
       y="-456.40823"
       width="0.38032308"
       height="5.5425615"
       style="clip-rule:evenodd;fill:#969a9e;fill-opacity:1;fill-rule:evenodd;stroke-width:0.626562;stroke-linejoin:round;stroke-miterlimit:2"
       id="rect52" /><path
       d="m -1259.7027,-426.79559 c -7.4918,3.54696 -12.4342,3.96237 -13.9103,4.00122 0.8439,-1.37906 3.9855,-6.18855 13.909,-12.35892 v -0.66416 c -11.6096,7.0933 -14.5444,12.95103 -14.659,13.1816 l -0.193,0.38471 0.4298,0.0263 c 0.2368,0.0131 5.4505,0.27004 14.4235,-3.94045 v -0.63032"
       style="clip-rule:evenodd;fill:#969a9e;fill-opacity:1;fill-rule:nonzero;stroke-width:0.626562;stroke-linejoin:round;stroke-miterlimit:2"
       id="path53" /><path
       d="m -1265.0805,-427.72038 -0.3603,1.34836 -2.7951,1.61277 -0.9862,-1.70988 2.7938,-1.6134 1.3478,0.36215"
       style="clip-rule:evenodd;fill:#969a9e;fill-opacity:1;fill-rule:nonzero;stroke-width:0.626562;stroke-linejoin:round;stroke-miterlimit:2"
       id="path54" /><path
       d="m -1259.7023,-431.04281 -5.9938,3.45678 0.1891,0.33148 5.8043,-3.35258 4e-4,-0.43568"
       style="clip-rule:evenodd;fill:#969a9e;fill-opacity:1;fill-rule:nonzero;stroke-width:0.626562;stroke-linejoin:round;stroke-miterlimit:2"
       id="path55" /><path
       d="m -1245.9835,-421.14087 c -1.1974,7.98427 -4.0777,10.53563 -4.1065,10.55881 -2.0664,2.02066 -4.3634,1.78821 -4.3866,1.78696 l -0.018,-0.003 h -0.018 c -3.3421,0.0451 -6.5432,-3.38593 -6.5745,-3.41914 l -2.5683,-2.66226 c -5.8897,-5.97426 -9.2744,-7.4517 -10.2099,-7.77062 0.06,-0.31954 0.1379,-0.92543 0.1379,-1.8872 0,-1.97116 -0.3365,-5.40785 -1.8822,-10.82322 l -1.0558,-3.5407 c -0.011,-0.0319 -0.5726,-1.80763 -0.5726,-3.83894 0,-1.20425 0.198,-2.4981 0.822,-3.57328 l 0.011,-0.0157 0.01,-0.0169 c 0.01,-0.0207 0.9348,-2.13595 3.6929,-2.93607 0.05,-0.0163 4.3189,-1.3045 13.0031,2.35588 v -0.61779 c -8.7581,-3.64158 -12.9906,-2.34209 -13.1716,-2.28257 -2.9749,0.86278 -3.9774,3.09083 -4.0445,3.2481 -0.6823,1.18482 -0.8972,2.57516 -0.8972,3.85523 0,2.08332 0.567,3.87215 0.6059,3.99057 l 1.052,3.5338 c 1.5313,5.35773 1.8533,8.76121 1.8533,10.67536 0,1.36653 -0.1641,1.97241 -0.1685,1.9887 l -0.083,0.28634 0.2907,0.0702 c 0.034,0.008 3.49,0.88783 10.2023,7.69605 l 2.5614,2.65537 c 0.1322,0.1441 3.3897,3.63718 6.9837,3.59708 0.2086,0.0238 2.6108,0.22306 4.812,-1.93043 0.1127,-0.0946 3.0751,-2.68607 4.2988,-10.98049 h -0.5764"
       style="clip-rule:evenodd;fill:#969a9e;fill-opacity:1;fill-rule:nonzero;stroke-width:0.626562;stroke-linejoin:round;stroke-miterlimit:2"
       id="path56" /><path
       d="m -1237.8934,-426.80933 c 7.4931,3.54947 12.4348,3.96426 13.9122,4.00123 -0.8446,-1.37593 -3.9862,-6.1873 -13.9109,-12.35767 v -0.66416 c 11.6095,7.09643 14.5437,12.9504 14.6596,13.1816 l 0.1924,0.38596 -0.4286,0.0263 c -0.2381,0.0138 -5.4523,0.26816 -14.4247,-3.94233 v -0.63095"
       style="clip-rule:evenodd;fill:#969a9e;fill-opacity:1;fill-rule:nonzero;stroke-width:0.626562;stroke-linejoin:round;stroke-miterlimit:2"
       id="path57" /><path
       d="m -1232.5156,-427.73352 0.3609,1.34836 2.7957,1.61465 0.9856,-1.71427 -2.7932,-1.61089 -1.349,0.36215"
       style="clip-rule:evenodd;fill:#969a9e;fill-opacity:1;fill-rule:nonzero;stroke-width:0.626562;stroke-linejoin:round;stroke-miterlimit:2"
       id="path58-5" /><path
       d="m -1237.8935,-431.05798 5.9942,3.46104 -0.1901,0.32796 -5.804,-3.35053 -10e-5,-0.43847"
       style="clip-rule:evenodd;fill:#969a9e;fill-opacity:1;fill-rule:nonzero;stroke-width:0.626562;stroke-linejoin:round;stroke-miterlimit:2"
       id="path59-7" /><path
       d="m -1251.6132,-421.15467 c 1.198,7.98615 4.0789,10.53563 4.1077,10.55944 2.0664,2.02191 4.3634,1.78946 4.3872,1.78507 l 0.018,-10e-4 h 0.018 c 3.3415,0.0464 6.542,-3.38594 6.5739,-3.41977 l 2.5683,-2.66164 c 5.8897,-5.97175 9.275,-7.44981 10.2111,-7.76936 -0.059,-0.32017 -0.1391,-0.9248 -0.1391,-1.88845 0,-1.96741 0.3371,-5.40723 1.8834,-10.82072 l 1.0558,-3.54258 c 0.01,-0.0319 0.5714,-1.80763 0.5714,-3.83956 0,-1.20426 -0.1967,-2.49748 -0.8227,-3.57266 l -0.01,-0.0163 -0.01,-0.0163 c -0.01,-0.0207 -0.9336,-2.13595 -3.6923,-2.93669 -0.05,-0.015 -4.3195,-1.30513 -13.0037,2.35524 v -0.61779 c 8.7569,-3.64094 12.9918,-2.3402 13.1716,-2.28068 2.9755,0.86152 3.978,3.09083 4.0457,3.24935 0.6805,1.18294 0.896,2.57266 0.896,3.8521 0,2.08394 -0.5677,3.8734 -0.6053,3.99245 l -1.0513,3.53192 c -1.5326,5.35773 -1.8547,8.76309 -1.8547,10.67535 0,1.36904 0.1661,1.97493 0.1686,1.98996 l 0.084,0.28822 -0.292,0.0683 c -0.034,0.006 -3.4893,0.88971 -10.2023,7.69542 l -2.5608,2.65474 c -0.1316,0.14411 -3.3897,3.63844 -6.983,3.60085 -0.2093,0.02 -2.6109,0.2193 -4.812,-1.93231 -0.1122,-0.0965 -3.0758,-2.68545 -4.2989,-10.98237 h 0.5746"
       style="clip-rule:evenodd;fill:#969a9e;fill-opacity:1;fill-rule:nonzero;stroke-width:0.626562;stroke-linejoin:round;stroke-miterlimit:2"
       id="path60-6" /><path
       d="m -1270.3411,-449.51405 c 0,0 4.6879,0.90601 10.6384,3.963 v 0.51942 c 0,0 -7.9173,-3.83017 -10.6384,-4.48242"
       style="clip-rule:evenodd;fill:#969a9e;fill-opacity:1;fill-rule:nonzero;stroke-width:0.626562;stroke-linejoin:round;stroke-miterlimit:2"
       id="path61-6" /><path
       d="m -1270.3411,-449.51413 10.6384,5.88153 v 0.65037 c 0,0 -9.5463,-5.60333 -10.6384,-6.5319"
       style="clip-rule:evenodd;fill:#969a9e;fill-opacity:1;fill-rule:nonzero;stroke-width:0.626562;stroke-linejoin:round;stroke-miterlimit:2"
       id="path62-7" /><path
       d="m -1270.3411,-449.51411 c 0,0 1.1428,1.88157 10.6384,8.02688 v 0.61716 c 0,0 -7.9812,-5.06512 -10.6384,-8.64404"
       style="clip-rule:evenodd;fill:#969a9e;fill-opacity:1;fill-rule:nonzero;stroke-width:0.626562;stroke-linejoin:round;stroke-miterlimit:2"
       id="path63-4" /><path
       d="m -1227.2531,-449.51405 c 0,0 -4.6861,0.90601 -10.639,3.963 v 0.51942 c 0,0 7.9172,-3.83017 10.639,-4.48242"
       style="clip-rule:evenodd;fill:#969a9e;fill-opacity:1;fill-rule:nonzero;stroke-width:0.626562;stroke-linejoin:round;stroke-miterlimit:2"
       id="path64-0" /><path
       d="m -1227.2531,-449.51413 -10.639,5.88153 v 0.65037 c 0,0 9.5475,-5.60333 10.639,-6.5319"
       style="clip-rule:evenodd;fill:#969a9e;fill-opacity:1;fill-rule:nonzero;stroke-width:0.626562;stroke-linejoin:round;stroke-miterlimit:2"
       id="path65-8" /><path
       d="m -1227.2531,-449.51411 c 0,0 -1.1422,1.88157 -10.639,8.02688 v 0.61716 c 0,0 7.983,-5.06512 10.639,-8.64404"
       style="clip-rule:evenodd;fill:#969a9e;fill-opacity:1;fill-rule:nonzero;stroke-width:0.626562;stroke-linejoin:round;stroke-miterlimit:2"
       id="path66-48" /><path
       d="m -1248.8432,-412.22489 c 0,0 -1.1547,-2.92792 -1.7293,-8.91597 h 0.4931 c 0,0 0.146,3.34333 1.2362,8.91597"
       style="clip-rule:evenodd;fill:#969a9e;fill-opacity:1;fill-rule:nonzero;stroke-width:0.626562;stroke-linejoin:round;stroke-miterlimit:2"
       id="path67-4" /><path
       d="m -1248.6195,-421.14086 -0.2237,8.91597 -0.2237,-8.91597 h 0.4474"
       style="clip-rule:evenodd;fill:#969a9e;fill-opacity:1;fill-rule:nonzero;stroke-width:0.626562;stroke-linejoin:round;stroke-miterlimit:2"
       id="path68-7" /><path
       d="m -1248.8432,-412.22489 c 0,0 0.9812,-3.11902 1.3922,-8.91597 h 0.4374 c 0,0 -0.8396,7.23052 -1.8296,8.91597"
       style="clip-rule:evenodd;fill:#969a9e;fill-opacity:1;fill-rule:nonzero;stroke-width:0.626562;stroke-linejoin:round;stroke-miterlimit:2"
       id="path69-8" /><path
       d="m -1257.0518,-444.08426 c 0,0.41165 -0.3339,0.74623 -0.7456,0.74623 -0.4122,0 -0.745,-0.33458 -0.745,-0.74623 v -3.36777 c 0,-0.41228 0.3328,-0.74436 0.745,-0.74436 h 7.8878 c 0.2074,0 0.3734,-0.16729 0.3734,-0.37343 v -0.53257 c 0,-0.41165 0.334,-0.74561 0.7463,-0.74561 0.4116,0 0.7443,0.33396 0.7443,0.74561 v 0.53257 c 0,0.20614 0.1673,0.37343 0.3722,0.37343 h 7.8891 c 0.411,0 0.7462,0.33208 0.7462,0.74436 v 3.36777 c 0,0.41165 -0.3352,0.74623 -0.7462,0.74623 -0.4123,0 -0.7457,-0.33458 -0.7457,-0.74623 v -2.24936 c 0,-0.20551 -0.1666,-0.3728 -0.374,-0.3728 h -2.8553 c -0.2061,0 -0.3734,0.16729 -0.3734,0.3728 v 2.24936 c 0,0.41165 -0.3339,0.74623 -0.7443,0.74623 -0.4136,0 -0.7463,-0.33458 -0.7463,-0.74623 l 7e-4,-2.24936 c 0,-0.20551 -0.1673,-0.3728 -0.3729,-0.3728 h -5.5908 c -0.2042,0 -0.3721,0.16729 -0.3721,0.3728 v 2.24936 c 0,0.41165 -0.3334,0.74623 -0.7444,0.74623 -0.4135,0 -0.7462,-0.33458 -0.7462,-0.74623 v -2.24936 c 0,-0.20551 -0.1673,-0.3728 -0.3735,-0.3728 h -2.8565 c -0.2055,0 -0.3728,0.16729 -0.3728,0.3728 v 2.24936"
       style="clip-rule:evenodd;fill:#969a9e;fill-opacity:1;fill-rule:nonzero;stroke-width:0.626562;stroke-linejoin:round;stroke-miterlimit:2"
       id="path70-5" /><path
       d="m -1258.5424,-425.20971 c 0,0.41102 0.3328,0.7431 0.745,0.7431 0.4117,0 0.7456,-0.33208 0.7456,-0.7431 v -7.13654 c 0,-0.20676 0.1673,-0.37343 0.3728,-0.37343 h 15.775 c 0.2074,0 0.374,0.16667 0.374,0.37343 v 7.13654 c 0,0.41102 0.3334,0.7431 0.7457,0.7431 0.411,0 0.7462,-0.33208 0.7462,-0.7431 v -8.2562 c 0,-0.41165 -0.3352,-0.7431 -0.7462,-0.7431 h -18.0131 c -0.4122,0 -0.745,0.33145 -0.745,0.7431 v 8.2562"
       style="clip-rule:evenodd;fill:#969a9e;fill-opacity:1;fill-rule:nonzero;stroke-width:0.626562;stroke-linejoin:round;stroke-miterlimit:2"
       id="path71-8" /><path
       d="m -1243.2881,-436.42648 c -0.411,0 -0.7462,0.33333 -0.7462,0.7456 0,0.41228 0.3352,0.74561 0.7462,0.74561 h 3.5038 c 0.411,0 0.7462,-0.33333 0.7462,-0.74561 l 6e-4,-6.09769 c 0,-0.41165 -0.3358,-0.74624 -0.7468,-0.74624 -0.4123,0 -0.7457,0.33459 -0.7457,0.74624 v 0.19611 c 0,0.20677 -0.1666,0.37281 -0.374,0.37281 h -2.3841 c -0.411,0 -0.7462,0.33458 -0.7462,0.74686 0,0.4104 0.3352,0.74435 0.7462,0.74435 h 2.2926 c 0.2569,0 0.4655,0.20865 0.4655,0.46616 0,0.25752 -0.2086,0.46679 -0.4655,0.46679 h -2.2926 c -0.411,0 -0.7462,0.33208 -0.7462,0.74436 0,0.41165 0.3352,0.74498 0.7462,0.74498 h 2.3227 c 0.2406,0 0.4354,0.19549 0.4354,0.43546 0,0.23997 -0.1948,0.43421 -0.4354,0.43421 h -2.3227"
       style="clip-rule:evenodd;fill:#969a9e;fill-opacity:1;fill-rule:nonzero;stroke-width:0.626562;stroke-linejoin:round;stroke-miterlimit:2"
       id="path72-4" /><path
       d="m -1258.5424,-441.77857 c 0,-0.41165 0.3328,-0.74624 0.745,-0.74624 0.4117,0 0.7456,0.33459 0.7456,0.74624 v 0.19611 c 0,0.20802 0.1673,0.37281 0.3728,0.37281 h 2.3158 c 0.411,0 0.7444,0.33458 0.7444,0.74686 0,0.4104 -0.3334,0.74435 -0.7444,0.74435 h -2.2237 c -0.2562,0 -0.4649,0.20865 -0.4649,0.46616 0,0.25752 0.2087,0.46679 0.4649,0.46679 h 2.2237 c 0.411,0 0.7444,0.33208 0.7444,0.74436 0,0.41165 -0.3334,0.74498 -0.7444,0.74498 h -2.2537 c -0.2406,0 -0.4349,0.19549 -0.4349,0.43546 0,0.23997 0.1943,0.43421 0.4349,0.43421 h 2.2537 c 0.411,0 0.7444,0.33333 0.7444,0.7456 0,0.41228 -0.3334,0.74561 -0.7444,0.74561 h -3.4342 c -0.4122,0 -0.745,-0.33333 -0.745,-0.74749 v -6.09581"
       style="clip-rule:evenodd;fill:#969a9e;fill-opacity:1;fill-rule:nonzero;stroke-width:0.626562;stroke-linejoin:round;stroke-miterlimit:2"
       id="path73-0" /><path
       d="m -1246.3683,-429.86194 c 0,-0.20551 -0.1666,-0.37343 -0.3734,-0.37343 h -4.0983 c -0.2055,0 -0.3722,0.16792 -0.3722,0.37343 v 0.55827 c 0,0.20676 0.1667,0.37217 0.3722,0.37217 h 4.0983 c 0.2068,0 0.3734,-0.16541 0.3734,-0.37217 z m 4.4718,4.2838 c 0,0.41291 -0.3346,0.74498 -0.7468,0.74498 h -5.4023 v 1.80387 c 0,0.41103 -0.3327,0.74185 -0.7443,0.74185 h -2.2105 c -0.4111,0 -0.7456,-0.33082 -0.7456,-0.74185 0,-0.4129 0.3345,-0.74748 0.7456,-0.74748 h 1.0908 c 0.2074,0 0.3734,-0.16542 0.3734,-0.37218 v -0.68421 h -5.4034 c -0.4117,0 -0.745,-0.33207 -0.745,-0.74498 v -5.57639 c 0,-0.41166 0.3333,-0.74561 0.745,-0.74561 0.4116,0 0.745,0.33395 0.745,0.74561 v 4.45986 c 0,0.20614 0.166,0.37218 0.3721,0.37218 h 4.2863 v -0.74373 c 0,-0.20739 -0.166,-0.37343 -0.3734,-0.37343 h -2.0488 c -0.4123,0 -0.7444,-0.33396 -0.7444,-0.74686 v -2.79384 c 0,-0.41228 0.3321,-0.74561 0.7444,-0.74561 h 6.3358 c 0.411,0 0.7456,0.33333 0.7456,0.74561 v 2.79384 c 0,0.4129 -0.3346,0.74686 -0.7463,0.74686 h -2.0501 c -0.2049,0 -0.3722,0.16604 -0.3722,0.37343 v 0.74373 h 4.2863 c 0.2043,0 0.3729,-0.16604 0.3729,-0.37218 v -4.45986 c 0,-0.41166 0.332,-0.74561 0.7431,-0.74561 0.4122,0 0.7468,0.33395 0.7468,0.74561 v 5.57639"
       style="clip-rule:evenodd;fill:#969a9e;fill-opacity:1;fill-rule:nonzero;stroke-width:0.626562;stroke-linejoin:round;stroke-miterlimit:2"
       id="path74-0" /><path
       d="m -1249.6727,-438.93709 c 0,0 -0.1285,0.0714 -0.1285,0.19047 0,0.12156 0.1285,0.19111 0.1285,0.19111 l 0.5432,0.31328 c 0,0 0.1936,0.11278 0.3346,0.11278 0.1397,0 0.3352,-0.11278 0.3352,-0.11278 l 0.5432,-0.31328 c 0,0 0.1272,-0.0695 0.1272,-0.19111 0,-0.11904 -0.1272,-0.19047 -0.1272,-0.19047 l -0.5432,-0.31328 c 0,0 -0.1955,-0.11153 -0.3352,-0.11153 -0.141,0 -0.3346,0.11153 -0.3346,0.11153 z m -1.4831,3.97428 c -0.3565,0.20488 -0.8127,0.0815 -1.0188,-0.27381 -0.2043,-0.35714 -0.083,-0.81328 0.2732,-1.01816 l 1.2876,-0.74185 c 0,0 0.1259,-0.0702 0.1259,-0.19047 0,-0.12093 -0.1259,-0.19048 -0.1259,-0.19048 l -1.2563,-0.72493 c 0,0 -0.3997,-0.23872 -0.3997,-0.64411 0,-0.40413 0.3997,-0.64285 0.3997,-0.64285 l 1.2563,-0.72368 c 0,0 0.1259,-0.0702 0.1259,-0.18984 0,-0.11968 -0.1259,-0.19048 -0.1259,-0.19048 l -1.3522,-0.78132 c -0.3577,-0.20614 -0.4787,-0.66228 -0.2744,-1.01879 0.2068,-0.35651 0.661,-0.47869 1.0188,-0.27193 l 2.0921,1.20801 c 0,0 0.1936,0.11153 0.3346,0.11153 0.1397,0 0.3352,-0.11153 0.3352,-0.11153 l 2.0257,-1.16979 c 0.3571,-0.20676 0.8114,-0.0833 1.0181,0.27256 0.2055,0.35651 0.083,0.81202 -0.2732,1.01753 l -1.2875,0.74373 c 0,0 -0.1272,0.0708 -0.1272,0.19048 0,0.11967 0.1272,0.18984 0.1272,0.18984 l 1.2606,0.72368 c 0,0 0.3997,0.23872 0.3997,0.64285 0,0.40539 -0.3997,0.64411 -0.3997,0.64411 l -1.2606,0.72493 c 0,0 -0.1272,0.0696 -0.1272,0.19048 0,0.1203 0.1272,0.19047 0.1272,0.19047 l 1.2706,0.7312 c 0.3553,0.20551 0.4787,0.66227 0.2726,1.01753 -0.2062,0.35652 -0.6623,0.47995 -1.0182,0.27444 l -2.0081,-1.16039 c 0,0 -0.1955,-0.11028 -0.3352,-0.11028 -0.141,0 -0.3346,0.11028 -0.3346,0.11028 l -2.0263,1.17104"
       style="clip-rule:evenodd;fill:#969a9e;fill-opacity:1;fill-rule:nonzero;stroke-width:0.626562;stroke-linejoin:round;stroke-miterlimit:2"
       id="path75-5" /></g><style
     type="text/css"
     id="style1-4">
	.st0{fill:#000000;}
</style><style
     type="text/css"
     id="style1-2">
	.st0{fill:#000000;}
</style><style
     type="text/css"
     id="style1-57">
	.puchipuchi_een{fill:#111918;}
</style><style
     type="text/css"
     id="style1-8">
	.st0{fill:#FFFFFF;}
	.st1{fill:#FF000F;}
	.st2{clip-path:url(#SVGID_00000033360798012652455790000001710163476446538370_);}
</style></svg>
